<svg xmlns="http://www.w3.org/2000/svg" xmlns:xlink="http://www.w3.org/1999/xlink" width="189" zoomAndPan="magnify" viewBox="0 0 141.75 396.749984" height="529" preserveAspectRatio="xMidYMid meet" version="1.0"><defs><clipPath id="43054c030f"><path d="M 0 0.222656 L 141.5 0.222656 L 141.5 396.277344 L 0 396.277344 Z M 0 0.222656 " clip-rule="nonzero"/></clipPath><clipPath id="d71356ff4b"><path d="M 1 0.222656 L 71 0.222656 L 71 396.175781 L 1 396.175781 Z M 1 0.222656 " clip-rule="nonzero"/></clipPath><clipPath id="978d1a6782"><path d="M 70 0.222656 L 139.96875 0.222656 L 139.96875 396.175781 L 70 396.175781 Z M 70 0.222656 " clip-rule="nonzero"/></clipPath><clipPath id="5e6b71c481"><path d="M 1 0.222656 L 71 0.222656 L 71 396.175781 L 1 396.175781 Z M 1 0.222656 " clip-rule="nonzero"/></clipPath><clipPath id="83b5560816"><path d="M 70 0.222656 L 139.96875 0.222656 L 139.96875 396.175781 L 70 396.175781 Z M 70 0.222656 " clip-rule="nonzero"/></clipPath><clipPath id="746a7d2c29"><rect x="0" width="142" y="0" height="397"/></clipPath></defs><g clip-path="url(#43054c030f)"><g transform="matrix(1, 0, 0, 1, 0, 0.000000000000069944)"><g clip-path="url(#746a7d2c29)"><g clip-path="url(#d71356ff4b)"><path fill="#ecd224" d="M 61.96875 228 C 60.136719 226.570312 58.125 225.460938 55.933594 224.675781 C 53.746094 223.886719 51.488281 223.464844 49.164062 223.402344 C 50.53125 221.949219 51.757812 220.382812 52.839844 218.707031 C 56.386719 213.289062 54.710938 206.785156 53.136719 201.039062 C 52.875 200.054688 52.675781 200.675781 52.578125 201.53125 C 51.820312 207.738281 44.761719 212.664062 38.949219 214.207031 C 36.453125 214.863281 33.890625 215.0625 31.429688 215.488281 C 36.617188 209.773438 41.839844 204.027344 46.960938 198.214844 C 48.210938 196.835938 49.457031 195.457031 50.671875 194.042969 C 58.949219 184.519531 66.46875 173.945312 68.765625 161.203125 C 70.703125 150.367188 71.035156 137.296875 65.714844 127.28125 C 63.019531 123.121094 61.046875 118.644531 59.800781 113.847656 C 58.949219 109.316406 57.964844 102.550781 61.34375 98.839844 C 61.804688 98.347656 61.9375 98.183594 61.34375 98.21875 C 59.894531 98.390625 58.488281 98.746094 57.128906 99.28125 C 55.769531 99.816406 54.503906 100.515625 53.324219 101.378906 C 52.144531 102.242188 51.09375 103.242188 50.171875 104.375 C 49.25 105.507812 48.484375 106.738281 47.882812 108.070312 C 46.601562 106.757812 45.289062 105.476562 44.039062 104.160156 C 36.257812 95.984375 27.882812 87.480469 23.085938 77.132812 C 17.667969 65.410156 20.199219 48.105469 34.21875 44.296875 C 41.378906 42.324219 49.128906 47.578125 47.75 55.363281 C 47.59375 56.273438 47.3125 57.140625 46.910156 57.972656 C 46.507812 58.804688 46 59.5625 45.386719 60.25 C 44.769531 60.941406 44.070312 61.53125 43.289062 62.019531 C 42.507812 62.511719 41.675781 62.886719 40.789062 63.144531 C 40.183594 63.328125 39.570312 63.402344 38.941406 63.371094 C 38.3125 63.339844 37.707031 63.203125 37.125 62.960938 C 36.542969 62.71875 36.019531 62.382812 35.554688 61.960938 C 35.089844 61.535156 34.710938 61.042969 34.417969 60.484375 C 34.1875 59.875 34.066406 59.246094 34.054688 58.59375 C 34.042969 57.941406 34.140625 57.308594 34.351562 56.691406 C 34.5625 56.074219 34.871094 55.507812 35.277344 55 C 35.679688 54.488281 36.160156 54.0625 36.714844 53.71875 C 36.945312 53.71875 36.714844 53.488281 36.484375 53.71875 C 35.78125 53.941406 35.097656 54.222656 34.441406 54.5625 C 33.78125 54.898438 33.15625 55.292969 32.566406 55.734375 C 31.972656 56.179688 31.421875 56.667969 30.914062 57.207031 C 30.40625 57.742188 29.945312 58.320312 29.53125 58.933594 C 29.121094 59.546875 28.761719 60.195312 28.460938 60.867188 C 28.15625 61.542969 27.914062 62.238281 27.730469 62.957031 C 27.542969 63.671875 27.417969 64.398438 27.355469 65.136719 C 27.292969 65.875 27.292969 66.609375 27.355469 67.347656 C 28.210938 74.867188 35.566406 75.195312 41.476562 75.132812 C 39.804688 78.019531 34.910156 79.203125 31.625 79.628906 C 31.066406 79.628906 31.429688 79.828125 31.824219 80.1875 C 37.011719 84.917969 44.464844 84.195312 50.378906 81.238281 C 50.578125 81.839844 50.824219 82.417969 51.117188 82.976562 C 51.410156 83.535156 51.75 84.066406 52.128906 84.570312 C 52.507812 85.074219 52.921875 85.542969 53.378906 85.980469 C 53.832031 86.417969 54.320312 86.816406 54.839844 87.175781 C 55.359375 87.535156 55.902344 87.847656 56.472656 88.121094 C 57.042969 88.390625 57.628906 88.613281 58.238281 88.792969 C 58.84375 88.96875 59.457031 89.09375 60.085938 89.171875 C 60.710938 89.25 61.339844 89.277344 61.96875 89.253906 C 62.855469 89.253906 63.382812 89.253906 62.625 88.824219 C 58.523438 87.25 57.078125 79.957031 58.75 76.476562 C 60.425781 72.996094 63.316406 69.910156 65.320312 66.394531 C 66.980469 63.203125 68.214844 59.851562 69.015625 56.339844 C 69.816406 52.828125 70.160156 49.273438 70.046875 45.675781 C 70.09375 44.132812 69.945312 42.613281 69.605469 41.109375 C 69.261719 39.605469 68.738281 38.167969 68.03125 36.796875 C 67.324219 35.429688 66.460938 34.167969 65.433594 33.019531 C 64.40625 31.871094 63.25 30.867188 61.96875 30.011719 C 60.132812 28.582031 58.121094 27.472656 55.933594 26.679688 C 53.746094 25.890625 51.488281 25.457031 49.164062 25.378906 C 50.546875 23.9375 51.773438 22.375 52.839844 20.683594 C 56.386719 15.296875 54.710938 8.796875 53.136719 3.015625 C 52.875 2.0625 52.773438 2.523438 52.675781 3.410156 C 51.921875 9.582031 44.761719 14.675781 38.949219 16.21875 C 36.453125 16.875 33.890625 17.070312 31.429688 17.5 C 36.617188 11.75 41.839844 6.035156 47.058594 0.222656 L 31.230469 0.222656 L 27.355469 4.429688 L 22.757812 9.058594 C 22.132812 7.855469 21.367188 6.75 20.46875 5.734375 C 19.570312 4.71875 18.5625 3.828125 17.449219 3.058594 C 16.332031 2.289062 15.140625 1.664062 13.871094 1.183594 C 12.605469 0.703125 11.296875 0.386719 9.953125 0.222656 C 9.195312 0.222656 9.953125 0.71875 10.476562 1.210938 C 13.761719 4.921875 12.183594 11.324219 11.363281 15.890625 C 10.105469 20.6875 8.125 25.164062 5.421875 29.320312 C 0.132812 39.171875 0.429688 52.308594 2.398438 63.242188 C 4.664062 75.917969 12.25 86.492188 20.460938 96.082031 C 26.109375 102.652344 31.921875 108.957031 37.703125 115.328125 C 35.851562 115.113281 34.023438 114.785156 32.21875 114.34375 C 26.40625 112.796875 19.410156 107.347656 18.621094 101.207031 C 18.621094 100.351562 18.261719 100.285156 17.996094 101.207031 C 16.453125 106.953125 14.714844 113.488281 18.292969 118.875 C 19.367188 120.558594 20.59375 122.121094 21.972656 123.570312 C 19.648438 123.652344 17.394531 124.085938 15.210938 124.871094 C 13.023438 125.65625 11.007812 126.753906 9.164062 128.167969 C 7.898438 129.023438 6.753906 130.023438 5.738281 131.164062 C 4.71875 132.304688 3.859375 133.550781 3.152344 134.910156 C 2.449219 136.265625 1.921875 137.6875 1.570312 139.175781 C 1.21875 140.664062 1.058594 142.171875 1.085938 143.699219 C 0.972656 147.300781 1.316406 150.855469 2.117188 154.367188 C 2.917969 157.875 4.148438 161.230469 5.8125 164.421875 C 7.75 167.902344 10.542969 170.988281 12.382812 174.503906 C 14.222656 178.019531 13.433594 185.175781 9.328125 186.753906 C 8.574219 187.046875 8.277344 187.3125 9.328125 187.277344 C 9.953125 187.300781 10.578125 187.269531 11.199219 187.191406 C 11.820312 187.109375 12.429688 186.980469 13.03125 186.804688 C 13.632812 186.625 14.214844 186.398438 14.777344 186.128906 C 15.339844 185.855469 15.878906 185.539062 16.394531 185.179688 C 16.90625 184.824219 17.386719 184.425781 17.835938 183.988281 C 18.285156 183.550781 18.699219 183.082031 19.070312 182.578125 C 19.445312 182.078125 19.773438 181.546875 20.0625 180.992188 C 20.351562 180.4375 20.59375 179.859375 20.789062 179.265625 C 21.496094 179.679688 22.234375 180.042969 22.996094 180.351562 C 23.757812 180.660156 24.535156 180.910156 25.335938 181.105469 C 26.132812 181.296875 26.941406 181.433594 27.761719 181.507812 C 28.578125 181.582031 29.398438 181.597656 30.21875 181.550781 C 31.039062 181.507812 31.851562 181.402344 32.65625 181.238281 C 33.464844 181.074219 34.253906 180.851562 35.023438 180.574219 C 35.796875 180.292969 36.546875 179.957031 37.269531 179.570312 C 37.992188 179.179688 38.683594 178.738281 39.34375 178.246094 C 40.164062 177.523438 40.722656 177.625 40.164062 177.523438 C 37.144531 177.097656 31.496094 176.046875 29.820312 173.15625 C 35.730469 173.15625 42.957031 172.925781 43.972656 165.375 C 44.035156 164.640625 44.035156 163.90625 43.972656 163.171875 C 43.910156 162.4375 43.785156 161.714844 43.601562 161.003906 C 43.417969 160.289062 43.175781 159.597656 42.875 158.921875 C 42.574219 158.25 42.222656 157.609375 41.8125 156.996094 C 41.40625 156.382812 40.949219 155.808594 40.441406 155.273438 C 39.9375 154.738281 39.390625 154.246094 38.804688 153.804688 C 38.214844 153.359375 37.59375 152.96875 36.941406 152.628906 C 36.289062 152.289062 35.609375 152.003906 34.910156 151.777344 C 34.613281 151.777344 34.648438 151.941406 34.910156 152.105469 C 35.308594 152.542969 35.636719 153.023438 35.90625 153.550781 C 36.171875 154.078125 36.367188 154.628906 36.484375 155.207031 C 36.601562 155.785156 36.644531 156.367188 36.605469 156.957031 C 36.566406 157.542969 36.449219 158.117188 36.257812 158.675781 C 36.15625 158.945312 36.03125 159.203125 35.878906 159.445312 C 35.730469 159.691406 35.554688 159.921875 35.363281 160.132812 C 35.167969 160.34375 34.957031 160.535156 34.726562 160.707031 C 34.492188 160.878906 34.25 161.027344 33.988281 161.148438 C 33.730469 161.273438 33.460938 161.375 33.183594 161.445312 C 32.90625 161.519531 32.625 161.566406 32.335938 161.582031 C 32.050781 161.601562 31.761719 161.59375 31.476562 161.558594 C 31.191406 161.519531 30.914062 161.457031 30.640625 161.367188 C 29.75 161.113281 28.910156 160.738281 28.125 160.246094 C 27.335938 159.75 26.636719 159.160156 26.015625 158.46875 C 25.398438 157.777344 24.886719 157.011719 24.484375 156.179688 C 24.082031 155.34375 23.800781 154.46875 23.644531 153.550781 C 22.265625 145.835938 30.050781 140.417969 37.207031 142.484375 C 51.199219 146.359375 53.628906 163.699219 48.308594 175.324219 C 43.902344 183.855469 38.253906 191.464844 31.363281 198.148438 L 27.355469 202.417969 C 25.878906 203.992188 24.402344 205.503906 22.890625 207.046875 C 22.261719 205.847656 21.5 204.738281 20.601562 203.722656 C 19.703125 202.707031 18.695312 201.816406 17.578125 201.046875 C 16.464844 200.277344 15.273438 199.652344 14.003906 199.171875 C 12.734375 198.695312 11.429688 198.375 10.082031 198.214844 C 9.328125 198.214844 9.722656 198.542969 10.082031 199.035156 C 13.367188 202.746094 12.21875 209.3125 11.398438 213.878906 C 10.140625 218.675781 8.160156 223.152344 5.453125 227.308594 C 0.164062 237.160156 0.460938 250.296875 2.429688 261.234375 C 4.699219 273.910156 12.285156 284.484375 20.492188 294.074219 C 26.140625 300.640625 31.953125 306.945312 37.734375 313.316406 C 35.871094 313.0625 34.03125 312.6875 32.21875 312.199219 C 26.40625 310.65625 19.410156 305.929688 18.621094 299.753906 C 18.621094 298.867188 18.261719 298.078125 17.996094 299.03125 C 16.453125 304.777344 14.714844 311.3125 18.292969 316.699219 C 19.367188 318.382812 20.59375 319.949219 21.972656 321.394531 C 19.648438 321.480469 17.394531 321.914062 15.210938 322.699219 C 13.023438 323.484375 11.007812 324.582031 9.164062 325.992188 C 7.882812 326.859375 6.726562 327.875 5.699219 329.03125 C 4.675781 330.191406 3.808594 331.460938 3.101562 332.835938 C 2.394531 334.214844 1.871094 335.660156 1.53125 337.167969 C 1.1875 338.679688 1.039062 340.207031 1.085938 341.753906 C 0.972656 345.351562 1.316406 348.898438 2.117188 352.40625 C 2.917969 355.910156 4.148438 359.257812 5.8125 362.445312 C 7.75 365.925781 10.542969 369.011719 12.382812 372.527344 C 14.222656 376.039062 14.417969 383.230469 10.3125 384.808594 C 9.558594 385.105469 8.277344 385.332031 9.195312 385.300781 C 9.828125 385.328125 10.460938 385.304688 11.085938 385.230469 C 11.714844 385.152344 12.335938 385.027344 12.941406 384.851562 C 13.550781 384.675781 14.140625 384.453125 14.710938 384.179688 C 15.28125 383.910156 15.828125 383.59375 16.347656 383.230469 C 16.867188 382.871094 17.355469 382.46875 17.808594 382.03125 C 18.265625 381.589844 18.679688 381.117188 19.058594 380.605469 C 19.4375 380.097656 19.769531 379.5625 20.058594 379 C 20.351562 378.4375 20.59375 377.855469 20.789062 377.253906 C 26.699219 380.210938 34.1875 380.964844 39.34375 376.238281 C 39.738281 375.875 40.722656 375.644531 40.164062 375.546875 C 37.144531 375.121094 31.496094 374.035156 29.820312 371.148438 C 35.730469 371.148438 42.957031 370.917969 43.972656 363.363281 C 44.035156 362.628906 44.035156 361.894531 43.972656 361.164062 C 43.910156 360.429688 43.785156 359.703125 43.601562 358.992188 C 43.417969 358.277344 43.175781 357.585938 42.875 356.914062 C 42.574219 356.242188 42.222656 355.597656 41.8125 354.984375 C 41.40625 354.371094 40.949219 353.796875 40.441406 353.261719 C 39.9375 352.726562 39.390625 352.238281 38.804688 351.792969 C 38.214844 351.347656 37.59375 350.957031 36.941406 350.617188 C 36.289062 350.277344 35.609375 349.996094 34.910156 349.769531 C 35.523438 350.214844 36.050781 350.746094 36.484375 351.367188 C 36.921875 351.988281 37.242188 352.664062 37.453125 353.394531 C 37.660156 354.121094 37.746094 354.867188 37.703125 355.625 C 37.660156 356.382812 37.496094 357.113281 37.207031 357.8125 C 36.867188 358.34375 36.449219 358.804688 35.953125 359.195312 C 35.460938 359.585938 34.914062 359.886719 34.320312 360.097656 C 33.726562 360.308594 33.117188 360.417969 32.484375 360.425781 C 31.855469 360.433594 31.238281 360.339844 30.640625 360.144531 C 29.714844 359.828125 28.847656 359.390625 28.039062 358.832031 C 27.230469 358.277344 26.515625 357.625 25.886719 356.871094 C 25.257812 356.117188 24.742188 355.296875 24.339844 354.402344 C 23.9375 353.507812 23.664062 352.578125 23.515625 351.609375 C 22.136719 343.890625 29.917969 338.472656 37.078125 340.574219 C 51.066406 344.414062 53.496094 361.753906 48.175781 373.414062 C 43.769531 381.933594 38.121094 389.53125 31.230469 396.203125 L 47.058594 396.203125 C 48.308594 394.824219 49.554688 393.445312 50.769531 392.03125 C 59.046875 382.507812 66.566406 371.96875 68.867188 359.195312 C 70.804688 348.355469 71.132812 335.285156 65.8125 325.269531 C 63.480469 320.835938 57.734375 315.78125 56.914062 310.625 C 56.703125 309.367188 56.648438 308.105469 56.753906 306.835938 C 56.855469 305.566406 57.113281 304.328125 57.523438 303.121094 C 57.933594 301.914062 58.484375 300.777344 59.175781 299.707031 C 59.867188 298.636719 60.675781 297.667969 61.609375 296.796875 C 62.101562 296.339844 62.066406 296.238281 61.34375 296.273438 C 59.894531 296.445312 58.488281 296.800781 57.128906 297.335938 C 55.769531 297.871094 54.503906 298.570312 53.324219 299.433594 C 52.144531 300.296875 51.09375 301.296875 50.171875 302.429688 C 49.25 303.5625 48.484375 304.792969 47.882812 306.125 C 46.601562 304.8125 45.289062 303.53125 44.039062 302.21875 C 36.257812 294.039062 27.882812 285.566406 23.085938 275.191406 C 17.667969 263.464844 20.199219 246.160156 34.21875 242.351562 C 41.378906 240.378906 49.128906 245.632812 47.75 253.417969 C 47.59375 254.328125 47.316406 255.203125 46.917969 256.039062 C 46.515625 256.871094 46.007812 257.636719 45.394531 258.328125 C 44.777344 259.015625 44.078125 259.609375 43.296875 260.105469 C 42.511719 260.597656 41.675781 260.972656 40.789062 261.234375 C 38.324219 261.890625 35.46875 262.019531 34.21875 259.820312 C 31.625 255.058594 36.75 251.546875 36.453125 251.644531 C 35.746094 251.871094 35.0625 252.152344 34.40625 252.492188 C 33.746094 252.832031 33.121094 253.226562 32.527344 253.675781 C 31.9375 254.121094 31.386719 254.613281 30.875 255.15625 C 30.367188 255.695312 29.910156 256.273438 29.496094 256.890625 C 29.085938 257.511719 28.730469 258.15625 28.429688 258.835938 C 28.128906 259.515625 27.890625 260.214844 27.707031 260.933594 C 27.523438 261.652344 27.402344 262.382812 27.34375 263.121094 C 27.285156 263.859375 27.289062 264.597656 27.355469 265.339844 C 28.210938 272.859375 35.566406 273.1875 41.476562 273.121094 C 41.140625 273.785156 40.730469 274.402344 40.242188 274.964844 C 39.757812 275.53125 39.210938 276.03125 38.605469 276.46875 C 38 276.902344 37.351562 277.257812 36.660156 277.535156 C 35.96875 277.8125 35.253906 278.007812 34.515625 278.113281 C 33.957031 278.113281 31.558594 277.816406 31.953125 278.113281 C 37.207031 282.90625 44.566406 282.183594 50.34375 279.359375 C 50.542969 279.957031 50.792969 280.539062 51.085938 281.097656 C 51.378906 281.65625 51.714844 282.1875 52.09375 282.691406 C 52.472656 283.195312 52.890625 283.664062 53.347656 284.101562 C 53.800781 284.539062 54.289062 284.9375 54.808594 285.296875 C 55.324219 285.65625 55.871094 285.96875 56.441406 286.242188 C 57.011719 286.511719 57.597656 286.734375 58.203125 286.914062 C 58.808594 287.089844 59.425781 287.214844 60.050781 287.292969 C 60.679688 287.371094 61.304688 287.398438 61.9375 287.375 C 62.824219 287.375 61.9375 287.046875 61.3125 286.75 C 57.207031 285.171875 57.042969 278.078125 58.71875 274.597656 C 60.394531 271.117188 63.285156 268.03125 65.285156 264.515625 C 66.96875 261.304688 68.210938 257.933594 69.019531 254.398438 C 69.824219 250.863281 70.167969 247.285156 70.046875 243.664062 C 70.09375 242.125 69.945312 240.601562 69.605469 239.097656 C 69.261719 237.59375 68.738281 236.15625 68.03125 234.789062 C 67.324219 233.417969 66.460938 232.160156 65.433594 231.007812 C 64.40625 229.859375 63.25 228.855469 61.96875 228 Z M 61.96875 228 " fill-opacity="1" fill-rule="nonzero"/></g><g clip-path="url(#978d1a6782)"><path fill="#ecd224" d="M 130.933594 326.027344 C 129.097656 324.609375 127.085938 323.511719 124.90625 322.726562 C 122.722656 321.941406 120.476562 321.507812 118.15625 321.429688 C 119.515625 319.964844 120.742188 318.398438 121.835938 316.730469 C 125.351562 311.347656 123.675781 304.8125 122.097656 299.0625 C 121.835938 298.113281 121.738281 299.261719 121.640625 300.148438 C 120.851562 306.320312 113.726562 310.691406 107.914062 312.234375 C 106.09375 312.675781 104.253906 313.003906 102.394531 313.21875 C 108.207031 306.847656 114.019531 300.476562 119.636719 293.972656 C 127.910156 284.484375 135.433594 273.910156 137.730469 261.132812 C 139.667969 250.296875 139.996094 237.226562 134.710938 227.210938 C 132.003906 223.054688 130.023438 218.578125 128.765625 213.78125 C 127.910156 209.214844 126.761719 202.550781 130.144531 198.839844 C 130.605469 198.34375 130.933594 198.082031 130.144531 198.117188 C 128.789062 198.277344 127.476562 198.601562 126.203125 199.085938 C 124.929688 199.574219 123.734375 200.210938 122.617188 200.996094 C 121.503906 201.78125 120.5 202.695312 119.613281 203.730469 C 118.726562 204.765625 117.976562 205.890625 117.371094 207.113281 C 115.859375 205.570312 114.347656 204.058594 112.871094 202.484375 L 108.898438 198.28125 C 102.007812 191.59375 96.359375 183.988281 91.953125 175.457031 C 86.566406 163.765625 89.0625 146.425781 103.085938 142.617188 C 110.242188 140.679688 117.992188 145.902344 116.613281 153.683594 C 116.460938 154.597656 116.183594 155.46875 115.78125 156.304688 C 115.382812 157.136719 114.875 157.902344 114.257812 158.59375 C 113.640625 159.285156 112.941406 159.875 112.160156 160.371094 C 111.378906 160.863281 110.542969 161.242188 109.652344 161.5 C 109.078125 161.695312 108.488281 161.78125 107.882812 161.765625 C 107.273438 161.75 106.691406 161.628906 106.128906 161.402344 C 105.5625 161.175781 105.058594 160.859375 104.609375 160.453125 C 104.160156 160.046875 103.792969 159.574219 103.511719 159.035156 C 103.339844 158.394531 103.257812 157.738281 103.273438 157.074219 C 103.289062 156.410156 103.394531 155.757812 103.597656 155.125 C 103.796875 154.492188 104.082031 153.898438 104.453125 153.34375 C 104.824219 152.792969 105.265625 152.304688 105.777344 151.878906 C 106.007812 151.878906 105.777344 151.878906 105.351562 151.878906 C 104.65625 152.105469 103.984375 152.386719 103.335938 152.726562 C 102.6875 153.0625 102.070312 153.453125 101.488281 153.894531 C 100.90625 154.335938 100.363281 154.820312 99.863281 155.355469 C 99.359375 155.886719 98.90625 156.457031 98.5 157.0625 C 98.09375 157.671875 97.738281 158.308594 97.4375 158.976562 C 97.140625 159.640625 96.894531 160.328125 96.710938 161.035156 C 96.527344 161.742188 96.398438 162.460938 96.335938 163.1875 C 96.269531 163.917969 96.265625 164.644531 96.320312 165.375 C 97.171875 172.925781 104.53125 173.222656 110.472656 173.15625 C 108.765625 176.046875 103.90625 177.296875 100.621094 177.722656 C 100.03125 177.722656 100.425781 177.886719 100.785156 178.246094 C 105.976562 182.976562 113.429688 182.222656 119.339844 179.265625 C 119.53125 179.875 119.773438 180.46875 120.0625 181.039062 C 120.351562 181.609375 120.6875 182.152344 121.066406 182.667969 C 121.445312 183.183594 121.863281 183.664062 122.320312 184.113281 C 122.78125 184.558594 123.273438 184.964844 123.796875 185.332031 C 124.320312 185.699219 124.875 186.019531 125.453125 186.292969 C 126.03125 186.566406 126.625 186.792969 127.242188 186.96875 C 127.855469 187.148438 128.484375 187.273438 129.117188 187.347656 C 129.753906 187.421875 130.390625 187.441406 131.03125 187.410156 C 131.917969 187.410156 132.476562 187.210938 131.722656 186.917969 C 127.617188 185.308594 126.136719 178.117188 127.847656 174.636719 C 129.554688 171.152344 132.378906 168.066406 134.414062 164.554688 C 136.066406 161.335938 137.28125 157.957031 138.0625 154.425781 C 138.839844 150.890625 139.15625 147.316406 139.011719 143.699219 C 139.050781 142.160156 138.902344 140.640625 138.558594 139.136719 C 138.214844 137.636719 137.6875 136.199219 136.984375 134.832031 C 136.277344 133.460938 135.410156 132.203125 134.386719 131.050781 C 133.363281 129.902344 132.210938 128.894531 130.933594 128.035156 C 129.097656 126.621094 127.085938 125.523438 124.90625 124.738281 C 122.722656 123.953125 120.476562 123.519531 118.15625 123.4375 C 119.515625 121.976562 120.742188 120.410156 121.835938 118.742188 C 125.351562 113.355469 123.675781 106.820312 122.097656 101.074219 C 121.835938 100.121094 121.835938 100.8125 121.738281 101.664062 C 120.949219 107.871094 113.726562 112.699219 107.914062 114.242188 C 106.09375 114.6875 104.253906 115.015625 102.394531 115.230469 C 108.207031 108.859375 114.019531 102.488281 119.636719 95.984375 C 127.910156 86.492188 135.433594 75.917969 137.730469 63.144531 C 139.667969 52.308594 139.996094 39.203125 134.710938 29.222656 C 132.265625 24.949219 130.285156 20.472656 128.765625 15.789062 C 127.386719 11.355469 126.238281 4.722656 129.617188 1.011719 C 130.046875 0.519531 130.933594 0.09375 130.175781 0.125 C 128.828125 0.273438 127.515625 0.585938 126.246094 1.0625 C 124.972656 1.535156 123.777344 2.160156 122.660156 2.929688 C 121.542969 3.699219 120.535156 4.597656 119.640625 5.617188 C 118.746094 6.636719 117.988281 7.75 117.371094 8.960938 L 112.738281 4.429688 L 108.898438 0.222656 L 93.035156 0.222656 C 98.191406 6.035156 103.378906 11.75 108.601562 17.5 C 106.105469 17.070312 103.542969 16.875 101.082031 16.21875 C 95.367188 14.675781 88.273438 9.484375 87.519531 3.277344 C 87.519531 2.425781 87.257812 2.0625 86.992188 3.015625 C 85.417969 8.796875 83.710938 15.296875 87.257812 20.683594 C 88.34375 22.355469 89.570312 23.921875 90.933594 25.378906 C 88.609375 25.460938 86.355469 25.898438 84.167969 26.6875 C 81.980469 27.480469 79.964844 28.585938 78.125 30.011719 C 76.847656 30.871094 75.695312 31.875 74.671875 33.023438 C 73.648438 34.175781 72.78125 35.4375 72.078125 36.804688 C 71.371094 38.175781 70.84375 39.609375 70.503906 41.113281 C 70.160156 42.613281 70.007812 44.132812 70.046875 45.675781 C 69.949219 49.273438 70.304688 52.828125 71.109375 56.339844 C 71.917969 59.847656 73.148438 63.199219 74.808594 66.394531 C 76.714844 69.84375 79.539062 72.964844 81.378906 76.476562 C 83.21875 79.992188 82.394531 87.183594 78.289062 88.761719 C 77.535156 89.054688 77.273438 89.285156 78.289062 89.253906 C 78.914062 89.265625 79.539062 89.230469 80.15625 89.148438 C 80.777344 89.0625 81.382812 88.929688 81.980469 88.75 C 82.578125 88.566406 83.160156 88.339844 83.722656 88.070312 C 84.285156 87.796875 84.820312 87.480469 85.332031 87.121094 C 85.84375 86.765625 86.324219 86.367188 86.773438 85.933594 C 87.222656 85.5 87.636719 85.03125 88.011719 84.535156 C 88.386719 84.035156 88.71875 83.507812 89.011719 82.957031 C 89.304688 82.402344 89.550781 81.832031 89.75 81.238281 C 95.628906 84.195312 103.117188 84.917969 108.273438 80.1875 C 108.667969 79.828125 108.765625 79.695312 108.273438 79.628906 C 105.253906 79.203125 100.554688 78.019531 98.847656 75.132812 C 104.757812 75.132812 111.984375 74.867188 113.003906 67.347656 C 113.0625 66.613281 113.0625 65.878906 113 65.148438 C 112.9375 64.414062 112.816406 63.6875 112.632812 62.976562 C 112.449219 62.261719 112.207031 61.570312 111.90625 60.898438 C 111.605469 60.226562 111.25 59.582031 110.839844 58.96875 C 110.433594 58.355469 109.976562 57.78125 109.472656 57.246094 C 108.964844 56.710938 108.417969 56.222656 107.832031 55.777344 C 107.246094 55.332031 106.625 54.941406 105.96875 54.601562 C 105.316406 54.261719 104.640625 53.980469 103.9375 53.753906 C 103.644531 53.753906 103.9375 53.949219 104.136719 54.148438 C 104.796875 55.074219 105.226562 56.101562 105.414062 57.222656 C 105.605469 58.347656 105.539062 59.457031 105.21875 60.550781 C 105.125 60.820312 105.003906 61.078125 104.855469 61.324219 C 104.710938 61.570312 104.542969 61.800781 104.351562 62.015625 C 104.164062 62.230469 103.953125 62.421875 103.726562 62.597656 C 103.5 62.769531 103.257812 62.921875 103 63.050781 C 102.746094 63.175781 102.476562 63.277344 102.203125 63.355469 C 101.925781 63.429688 101.644531 63.480469 101.359375 63.503906 C 101.074219 63.523438 100.789062 63.519531 100.503906 63.488281 C 100.222656 63.453125 99.941406 63.394531 99.667969 63.308594 C 98.78125 63.054688 97.941406 62.683594 97.15625 62.191406 C 96.375 61.699219 95.671875 61.113281 95.054688 60.421875 C 94.433594 59.734375 93.921875 58.976562 93.519531 58.140625 C 93.113281 57.308594 92.832031 56.4375 92.675781 55.527344 C 92.621094 55.097656 92.597656 54.664062 92.601562 54.230469 C 92.601562 53.796875 92.632812 53.367188 92.6875 52.9375 C 92.746094 52.507812 92.828125 52.082031 92.9375 51.664062 C 93.046875 51.246094 93.183594 50.832031 93.347656 50.429688 C 93.507812 50.03125 93.691406 49.640625 93.902344 49.261719 C 94.113281 48.882812 94.347656 48.515625 94.605469 48.167969 C 94.859375 47.820312 95.136719 47.488281 95.4375 47.171875 C 95.734375 46.859375 96.050781 46.5625 96.386719 46.289062 C 96.722656 46.011719 97.070312 45.761719 97.4375 45.53125 C 97.804688 45.300781 98.183594 45.09375 98.578125 44.910156 C 98.972656 44.726562 99.375 44.570312 99.785156 44.4375 C 100.199219 44.304688 100.617188 44.199219 101.042969 44.121094 C 101.46875 44.039062 101.898438 43.988281 102.332031 43.960938 C 102.765625 43.9375 103.195312 43.9375 103.628906 43.964844 C 104.0625 43.996094 104.492188 44.050781 104.914062 44.132812 C 105.339844 44.214844 105.761719 44.324219 106.171875 44.460938 C 120.195312 48.335938 122.589844 65.640625 117.269531 77.300781 C 112.507812 87.644531 104.136719 96.148438 96.320312 104.324219 C 95.070312 105.640625 93.792969 106.921875 92.511719 108.234375 C 91.902344 106.90625 91.136719 105.675781 90.214844 104.546875 C 89.289062 103.414062 88.238281 102.417969 87.058594 101.554688 C 85.882812 100.691406 84.613281 99.992188 83.257812 99.457031 C 81.898438 98.917969 80.496094 98.558594 79.046875 98.382812 C 78.289062 98.382812 79.472656 99.136719 79.933594 99.628906 C 83.21875 103.339844 81.3125 109.480469 80.457031 114.011719 C 79.214844 118.816406 77.234375 123.292969 74.515625 127.445312 C 69.226562 137.296875 69.554688 150.433594 71.492188 161.367188 C 73.757812 174.042969 81.34375 184.617188 89.554688 194.207031 L 93.035156 198.214844 C 98.203125 204.039062 103.390625 209.796875 108.601562 215.488281 C 106.105469 215.0625 103.542969 214.863281 101.082031 214.207031 C 95.269531 212.664062 88.175781 206.652344 87.421875 200.480469 C 87.421875 199.59375 87.15625 200.054688 86.894531 201.039062 C 85.320312 206.785156 83.609375 213.289062 87.15625 218.707031 C 88.285156 220.417969 89.546875 222.027344 90.933594 223.535156 C 88.609375 223.601562 86.351562 224.027344 84.164062 224.8125 C 81.976562 225.597656 79.964844 226.707031 78.125 228.132812 C 76.859375 228.984375 75.714844 229.980469 74.695312 231.121094 C 73.675781 232.261719 72.8125 233.511719 72.109375 234.867188 C 71.402344 236.226562 70.875 237.648438 70.527344 239.136719 C 70.179688 240.625 70.019531 242.136719 70.046875 243.664062 C 69.949219 247.265625 70.300781 250.820312 71.109375 254.328125 C 71.914062 257.839844 73.148438 261.191406 74.808594 264.386719 C 76.714844 267.667969 79.539062 270.953125 81.378906 274.46875 C 83.21875 277.980469 83.21875 285.042969 79.144531 286.617188 C 78.390625 286.914062 77.273438 287.273438 78.191406 287.242188 C 78.816406 287.265625 79.441406 287.234375 80.058594 287.160156 C 80.679688 287.082031 81.289062 286.957031 81.890625 286.78125 C 82.492188 286.609375 83.074219 286.390625 83.640625 286.121094 C 84.207031 285.855469 84.746094 285.546875 85.261719 285.195312 C 85.78125 284.84375 86.265625 284.453125 86.71875 284.023438 C 87.175781 283.59375 87.59375 283.132812 87.972656 282.636719 C 88.355469 282.140625 88.695312 281.617188 88.992188 281.070312 C 89.289062 280.519531 89.542969 279.949219 89.75 279.359375 C 90.460938 279.773438 91.195312 280.132812 91.957031 280.4375 C 92.71875 280.742188 93.496094 280.992188 94.296875 281.183594 C 95.09375 281.375 95.898438 281.507812 96.71875 281.582031 C 97.535156 281.652344 98.351562 281.667969 99.171875 281.621094 C 99.988281 281.574219 100.800781 281.46875 101.605469 281.304688 C 102.40625 281.136719 103.195312 280.914062 103.964844 280.636719 C 104.738281 280.355469 105.484375 280.019531 106.203125 279.628906 C 106.925781 279.242188 107.617188 278.800781 108.273438 278.308594 C 108.699219 278.015625 109.585938 277.785156 109.027344 277.71875 C 105.976562 277.257812 100.457031 276.140625 98.75 273.253906 C 104.660156 273.253906 111.886719 272.988281 112.902344 265.46875 C 112.964844 264.734375 112.964844 264 112.902344 263.269531 C 112.839844 262.535156 112.71875 261.808594 112.53125 261.097656 C 112.347656 260.382812 112.105469 259.691406 111.804688 259.019531 C 111.507812 258.347656 111.152344 257.703125 110.742188 257.089844 C 110.335938 256.476562 109.878906 255.902344 109.371094 255.367188 C 108.867188 254.832031 108.320312 254.339844 107.734375 253.898438 C 107.144531 253.453125 106.523438 253.0625 105.871094 252.722656 C 105.21875 252.382812 104.542969 252.101562 103.839844 251.875 C 103.542969 251.875 108.765625 255.15625 106.140625 259.886719 C 104.921875 262.085938 102 262.121094 99.570312 261.464844 C 98.679688 261.207031 97.839844 260.832031 97.054688 260.339844 C 96.269531 259.847656 95.566406 259.253906 94.945312 258.5625 C 94.328125 257.871094 93.816406 257.109375 93.414062 256.273438 C 93.011719 255.4375 92.730469 254.5625 92.574219 253.648438 C 92.515625 253.210938 92.484375 252.773438 92.480469 252.335938 C 92.476562 251.894531 92.5 251.457031 92.550781 251.019531 C 92.601562 250.582031 92.683594 250.152344 92.789062 249.726562 C 92.894531 249.300781 93.027344 248.882812 93.1875 248.472656 C 93.347656 248.0625 93.535156 247.664062 93.746094 247.277344 C 93.957031 246.894531 94.191406 246.523438 94.449219 246.167969 C 94.707031 245.808594 94.984375 245.472656 95.285156 245.152344 C 95.585938 244.832031 95.90625 244.53125 96.246094 244.253906 C 96.585938 243.972656 96.941406 243.714844 97.3125 243.480469 C 97.6875 243.246094 98.070312 243.039062 98.46875 242.851562 C 98.871094 242.667969 99.277344 242.507812 99.699219 242.375 C 100.117188 242.242188 100.542969 242.136719 100.976562 242.058594 C 101.40625 241.980469 101.84375 241.929688 102.28125 241.90625 C 102.722656 241.882812 103.160156 241.886719 103.597656 241.921875 C 104.035156 241.953125 104.472656 242.015625 104.902344 242.101562 C 105.332031 242.191406 105.753906 242.308594 106.171875 242.449219 C 120.195312 246.324219 122.589844 263.628906 117.269531 275.289062 C 112.507812 285.664062 104.136719 294.136719 96.320312 302.316406 C 95.070312 303.628906 93.792969 304.910156 92.511719 306.222656 C 91.902344 304.894531 91.136719 303.667969 90.214844 302.535156 C 89.289062 301.402344 88.238281 300.40625 87.058594 299.546875 C 85.882812 298.683594 84.613281 297.984375 83.257812 297.445312 C 81.898438 296.90625 80.496094 296.550781 79.046875 296.371094 C 78.289062 296.371094 79.835938 297.683594 80.292969 298.175781 C 81.132812 299.074219 81.824219 300.078125 82.367188 301.179688 C 82.90625 302.285156 83.273438 303.445312 83.464844 304.660156 C 83.660156 305.875 83.671875 307.089844 83.5 308.308594 C 83.328125 309.527344 82.980469 310.691406 82.460938 311.804688 C 80.753906 316.765625 76.910156 320.933594 74.515625 325.433594 C 69.226562 335.285156 69.554688 348.421875 71.492188 359.359375 C 73.757812 372.066406 81.34375 382.609375 89.554688 392.199219 L 93.035156 396.203125 L 108.765625 396.203125 C 101.875 389.53125 96.226562 381.933594 91.820312 373.414062 C 86.433594 361.6875 88.929688 344.351562 102.953125 340.574219 C 110.113281 338.601562 117.863281 343.859375 116.484375 351.609375 C 116.328125 352.519531 116.050781 353.394531 115.652344 354.226562 C 115.25 355.0625 114.742188 355.824219 114.125 356.515625 C 113.511719 357.207031 112.8125 357.800781 112.027344 358.292969 C 111.246094 358.789062 110.410156 359.164062 109.519531 359.421875 C 108.898438 359.605469 108.265625 359.679688 107.617188 359.640625 C 106.96875 359.605469 106.347656 359.460938 105.746094 359.210938 C 105.148438 358.957031 104.609375 358.613281 104.132812 358.179688 C 103.652344 357.742188 103.257812 357.238281 102.953125 356.664062 C 102.816406 356.375 102.703125 356.074219 102.625 355.765625 C 102.542969 355.453125 102.496094 355.136719 102.476562 354.816406 C 102.457031 354.496094 102.46875 354.175781 102.511719 353.859375 C 102.554688 353.539062 102.625 353.230469 102.730469 352.925781 C 102.832031 352.621094 102.964844 352.332031 103.125 352.050781 C 103.285156 351.773438 103.46875 351.511719 103.679688 351.269531 C 103.890625 351.027344 104.125 350.808594 104.375 350.609375 C 104.628906 350.414062 104.898438 350.242188 105.1875 350.097656 C 105.417969 350.097656 105.582031 349.671875 105.1875 349.734375 C 104.492188 349.96875 103.824219 350.261719 103.179688 350.609375 C 102.535156 350.957031 101.921875 351.351562 101.34375 351.800781 C 100.765625 352.25 100.230469 352.746094 99.734375 353.285156 C 99.238281 353.824219 98.789062 354.398438 98.390625 355.011719 C 97.992188 355.628906 97.644531 356.269531 97.355469 356.941406 C 97.0625 357.613281 96.828125 358.304688 96.652344 359.015625 C 96.476562 359.726562 96.359375 360.445312 96.304688 361.175781 C 96.25 361.90625 96.253906 362.636719 96.320312 363.363281 C 97.171875 370.917969 104.53125 371.210938 110.472656 371.148438 C 110.152344 371.886719 109.730469 372.566406 109.210938 373.183594 C 108.6875 373.796875 108.089844 374.324219 107.410156 374.761719 C 106.730469 375.203125 106.003906 375.53125 105.230469 375.753906 C 104.453125 375.980469 103.660156 376.085938 102.855469 376.074219 C 102.265625 376.074219 100.554688 375.875 100.917969 376.074219 C 106.105469 380.800781 113.5625 380.046875 119.472656 377.089844 C 119.667969 377.691406 119.914062 378.273438 120.203125 378.832031 C 120.496094 379.394531 120.832031 379.925781 121.207031 380.433594 C 121.585938 380.941406 122.003906 381.410156 122.457031 381.851562 C 122.914062 382.289062 123.398438 382.6875 123.921875 383.046875 C 124.441406 383.40625 124.984375 383.722656 125.554688 383.992188 C 126.128906 384.261719 126.714844 384.484375 127.324219 384.660156 C 127.929688 384.835938 128.546875 384.960938 129.175781 385.035156 C 129.804688 385.109375 130.433594 385.132812 131.0625 385.105469 C 131.949219 385.105469 132.476562 385.105469 131.722656 384.742188 C 127.617188 383.167969 126.171875 375.84375 127.878906 372.328125 C 129.585938 368.816406 132.410156 365.761719 134.445312 362.246094 C 136.066406 359.082031 137.261719 355.761719 138.035156 352.292969 C 138.808594 348.820312 139.132812 345.308594 139.011719 341.753906 C 139.058594 340.210938 138.910156 338.683594 138.570312 337.175781 C 138.230469 335.667969 137.707031 334.226562 137 332.847656 C 136.292969 331.472656 135.425781 330.207031 134.398438 329.054688 C 133.371094 327.898438 132.214844 326.886719 130.933594 326.027344 Z M 130.933594 326.027344 " fill-opacity="1" fill-rule="nonzero"/></g><g clip-path="url(#5e6b71c481)"><path fill="#ecd224" d="M 61.96875 228 C 60.136719 226.570312 58.125 225.460938 55.933594 224.675781 C 53.746094 223.886719 51.488281 223.464844 49.164062 223.402344 C 50.53125 221.949219 51.757812 220.382812 52.839844 218.707031 C 56.386719 213.289062 54.710938 206.785156 53.136719 201.039062 C 52.875 200.054688 52.675781 200.675781 52.578125 201.53125 C 51.820312 207.738281 44.761719 212.664062 38.949219 214.207031 C 36.453125 214.863281 33.890625 215.0625 31.429688 215.488281 C 36.617188 209.773438 41.839844 204.027344 46.960938 198.214844 C 48.210938 196.835938 49.457031 195.457031 50.671875 194.042969 C 58.949219 184.519531 66.46875 173.945312 68.765625 161.203125 C 70.703125 150.367188 71.035156 137.296875 65.714844 127.28125 C 63.019531 123.121094 61.046875 118.644531 59.800781 113.847656 C 58.949219 109.316406 57.964844 102.550781 61.34375 98.839844 C 61.804688 98.347656 61.9375 98.183594 61.34375 98.21875 C 59.894531 98.390625 58.488281 98.746094 57.128906 99.28125 C 55.769531 99.816406 54.503906 100.515625 53.324219 101.378906 C 52.144531 102.242188 51.09375 103.242188 50.171875 104.375 C 49.25 105.507812 48.484375 106.738281 47.882812 108.070312 C 46.601562 106.757812 45.289062 105.476562 44.039062 104.160156 C 36.257812 95.984375 27.882812 87.480469 23.085938 77.132812 C 17.667969 65.410156 20.199219 48.105469 34.21875 44.296875 C 41.378906 42.324219 49.128906 47.578125 47.75 55.363281 C 47.59375 56.273438 47.3125 57.140625 46.910156 57.972656 C 46.507812 58.804688 46 59.5625 45.386719 60.25 C 44.769531 60.941406 44.070312 61.53125 43.289062 62.019531 C 42.507812 62.511719 41.675781 62.886719 40.789062 63.144531 C 40.183594 63.328125 39.570312 63.402344 38.941406 63.371094 C 38.3125 63.339844 37.707031 63.203125 37.125 62.960938 C 36.542969 62.71875 36.019531 62.382812 35.554688 61.960938 C 35.089844 61.535156 34.710938 61.042969 34.417969 60.484375 C 34.1875 59.875 34.066406 59.246094 34.054688 58.59375 C 34.042969 57.941406 34.140625 57.308594 34.351562 56.691406 C 34.5625 56.074219 34.871094 55.507812 35.277344 55 C 35.679688 54.488281 36.160156 54.0625 36.714844 53.71875 C 36.945312 53.71875 36.714844 53.488281 36.484375 53.71875 C 35.78125 53.941406 35.097656 54.222656 34.441406 54.5625 C 33.78125 54.898438 33.15625 55.292969 32.566406 55.734375 C 31.972656 56.179688 31.421875 56.667969 30.914062 57.207031 C 30.40625 57.742188 29.945312 58.320312 29.53125 58.933594 C 29.121094 59.546875 28.761719 60.195312 28.460938 60.867188 C 28.15625 61.542969 27.914062 62.238281 27.730469 62.957031 C 27.542969 63.671875 27.417969 64.398438 27.355469 65.136719 C 27.292969 65.875 27.292969 66.609375 27.355469 67.347656 C 28.210938 74.867188 35.566406 75.195312 41.476562 75.132812 C 39.804688 78.019531 34.910156 79.203125 31.625 79.628906 C 31.066406 79.628906 31.429688 79.828125 31.824219 80.1875 C 37.011719 84.917969 44.464844 84.195312 50.378906 81.238281 C 50.578125 81.839844 50.824219 82.417969 51.117188 82.976562 C 51.410156 83.535156 51.75 84.066406 52.128906 84.570312 C 52.507812 85.074219 52.921875 85.542969 53.378906 85.980469 C 53.832031 86.417969 54.320312 86.816406 54.839844 87.175781 C 55.359375 87.535156 55.902344 87.847656 56.472656 88.121094 C 57.042969 88.390625 57.628906 88.613281 58.238281 88.792969 C 58.84375 88.96875 59.457031 89.09375 60.085938 89.171875 C 60.710938 89.25 61.339844 89.277344 61.96875 89.253906 C 62.855469 89.253906 63.382812 89.253906 62.625 88.824219 C 58.523438 87.25 57.078125 79.957031 58.75 76.476562 C 60.425781 72.996094 63.316406 69.910156 65.320312 66.394531 C 66.980469 63.203125 68.214844 59.851562 69.015625 56.339844 C 69.816406 52.828125 70.160156 49.273438 70.046875 45.675781 C 70.09375 44.132812 69.945312 42.613281 69.605469 41.109375 C 69.261719 39.605469 68.738281 38.167969 68.03125 36.796875 C 67.324219 35.429688 66.460938 34.167969 65.433594 33.019531 C 64.40625 31.871094 63.25 30.867188 61.96875 30.011719 C 60.132812 28.582031 58.121094 27.472656 55.933594 26.679688 C 53.746094 25.890625 51.488281 25.457031 49.164062 25.378906 C 50.546875 23.9375 51.773438 22.375 52.839844 20.683594 C 56.386719 15.296875 54.710938 8.796875 53.136719 3.015625 C 52.875 2.0625 52.773438 2.523438 52.675781 3.410156 C 51.921875 9.582031 44.761719 14.675781 38.949219 16.21875 C 36.453125 16.875 33.890625 17.070312 31.429688 17.5 C 36.617188 11.75 41.839844 6.035156 47.058594 0.222656 L 31.230469 0.222656 L 27.355469 4.429688 L 22.757812 9.058594 C 22.132812 7.855469 21.367188 6.75 20.46875 5.734375 C 19.570312 4.71875 18.5625 3.828125 17.449219 3.058594 C 16.332031 2.289062 15.140625 1.664062 13.871094 1.183594 C 12.605469 0.703125 11.296875 0.386719 9.953125 0.222656 C 9.195312 0.222656 9.953125 0.71875 10.476562 1.210938 C 13.761719 4.921875 12.183594 11.324219 11.363281 15.890625 C 10.105469 20.6875 8.125 25.164062 5.421875 29.320312 C 0.132812 39.171875 0.429688 52.308594 2.398438 63.242188 C 4.664062 75.917969 12.25 86.492188 20.460938 96.082031 C 26.109375 102.652344 31.921875 108.957031 37.703125 115.328125 C 35.851562 115.113281 34.023438 114.785156 32.21875 114.34375 C 26.40625 112.796875 19.410156 107.347656 18.621094 101.207031 C 18.621094 100.351562 18.261719 100.285156 17.996094 101.207031 C 16.453125 106.953125 14.714844 113.488281 18.292969 118.875 C 19.367188 120.558594 20.59375 122.121094 21.972656 123.570312 C 19.648438 123.652344 17.394531 124.085938 15.210938 124.871094 C 13.023438 125.65625 11.007812 126.753906 9.164062 128.167969 C 7.898438 129.023438 6.753906 130.023438 5.738281 131.164062 C 4.71875 132.304688 3.859375 133.550781 3.152344 134.910156 C 2.449219 136.265625 1.921875 137.6875 1.570312 139.175781 C 1.21875 140.664062 1.058594 142.171875 1.085938 143.699219 C 0.972656 147.300781 1.316406 150.855469 2.117188 154.367188 C 2.917969 157.875 4.148438 161.230469 5.8125 164.421875 C 7.75 167.902344 10.542969 170.988281 12.382812 174.503906 C 14.222656 178.019531 13.433594 185.175781 9.328125 186.753906 C 8.574219 187.046875 8.277344 187.3125 9.328125 187.277344 C 9.953125 187.300781 10.578125 187.269531 11.199219 187.191406 C 11.820312 187.109375 12.429688 186.980469 13.03125 186.804688 C 13.632812 186.625 14.214844 186.398438 14.777344 186.128906 C 15.339844 185.855469 15.878906 185.539062 16.394531 185.179688 C 16.90625 184.824219 17.386719 184.425781 17.835938 183.988281 C 18.285156 183.550781 18.699219 183.082031 19.070312 182.578125 C 19.445312 182.078125 19.773438 181.546875 20.0625 180.992188 C 20.351562 180.4375 20.59375 179.859375 20.789062 179.265625 C 21.496094 179.679688 22.234375 180.042969 22.996094 180.351562 C 23.757812 180.660156 24.535156 180.910156 25.335938 181.105469 C 26.132812 181.296875 26.941406 181.433594 27.761719 181.507812 C 28.578125 181.582031 29.398438 181.597656 30.21875 181.550781 C 31.039062 181.507812 31.851562 181.402344 32.65625 181.238281 C 33.464844 181.074219 34.253906 180.851562 35.023438 180.574219 C 35.796875 180.292969 36.546875 179.957031 37.269531 179.570312 C 37.992188 179.179688 38.683594 178.738281 39.34375 178.246094 C 40.164062 177.523438 40.722656 177.625 40.164062 177.523438 C 37.144531 177.097656 31.496094 176.046875 29.820312 173.15625 C 35.730469 173.15625 42.957031 172.925781 43.972656 165.375 C 44.035156 164.640625 44.035156 163.90625 43.972656 163.171875 C 43.910156 162.4375 43.785156 161.714844 43.601562 161.003906 C 43.417969 160.289062 43.175781 159.597656 42.875 158.921875 C 42.574219 158.25 42.222656 157.609375 41.8125 156.996094 C 41.40625 156.382812 40.949219 155.808594 40.441406 155.273438 C 39.9375 154.738281 39.390625 154.246094 38.804688 153.804688 C 38.214844 153.359375 37.59375 152.96875 36.941406 152.628906 C 36.289062 152.289062 35.609375 152.003906 34.910156 151.777344 C 34.613281 151.777344 34.648438 151.941406 34.910156 152.105469 C 35.308594 152.542969 35.636719 153.023438 35.90625 153.550781 C 36.171875 154.078125 36.367188 154.628906 36.484375 155.207031 C 36.601562 155.785156 36.644531 156.367188 36.605469 156.957031 C 36.566406 157.542969 36.449219 158.117188 36.257812 158.675781 C 36.15625 158.945312 36.03125 159.203125 35.878906 159.445312 C 35.730469 159.691406 35.554688 159.921875 35.363281 160.132812 C 35.167969 160.34375 34.957031 160.535156 34.726562 160.707031 C 34.492188 160.878906 34.25 161.027344 33.988281 161.148438 C 33.730469 161.273438 33.460938 161.375 33.183594 161.445312 C 32.90625 161.519531 32.625 161.566406 32.335938 161.582031 C 32.050781 161.601562 31.761719 161.59375 31.476562 161.558594 C 31.191406 161.519531 30.914062 161.457031 30.640625 161.367188 C 29.75 161.113281 28.910156 160.738281 28.125 160.246094 C 27.335938 159.75 26.636719 159.160156 26.015625 158.46875 C 25.398438 157.777344 24.886719 157.011719 24.484375 156.179688 C 24.082031 155.34375 23.800781 154.46875 23.644531 153.550781 C 22.265625 145.835938 30.050781 140.417969 37.207031 142.484375 C 51.199219 146.359375 53.628906 163.699219 48.308594 175.324219 C 43.902344 183.855469 38.253906 191.464844 31.363281 198.148438 L 27.355469 202.417969 C 25.878906 203.992188 24.402344 205.503906 22.890625 207.046875 C 22.261719 205.847656 21.5 204.738281 20.601562 203.722656 C 19.703125 202.707031 18.695312 201.816406 17.578125 201.046875 C 16.464844 200.277344 15.273438 199.652344 14.003906 199.171875 C 12.734375 198.695312 11.429688 198.375 10.082031 198.214844 C 9.328125 198.214844 9.722656 198.542969 10.082031 199.035156 C 13.367188 202.746094 12.21875 209.3125 11.398438 213.878906 C 10.140625 218.675781 8.160156 223.152344 5.453125 227.308594 C 0.164062 237.160156 0.460938 250.296875 2.429688 261.234375 C 4.699219 273.910156 12.285156 284.484375 20.492188 294.074219 C 26.140625 300.640625 31.953125 306.945312 37.734375 313.316406 C 35.871094 313.0625 34.03125 312.6875 32.21875 312.199219 C 26.40625 310.65625 19.410156 305.929688 18.621094 299.753906 C 18.621094 298.867188 18.261719 298.078125 17.996094 299.03125 C 16.453125 304.777344 14.714844 311.3125 18.292969 316.699219 C 19.367188 318.382812 20.59375 319.949219 21.972656 321.394531 C 19.648438 321.480469 17.394531 321.914062 15.210938 322.699219 C 13.023438 323.484375 11.007812 324.582031 9.164062 325.992188 C 7.882812 326.859375 6.726562 327.875 5.699219 329.03125 C 4.675781 330.191406 3.808594 331.460938 3.101562 332.835938 C 2.394531 334.214844 1.871094 335.660156 1.53125 337.167969 C 1.1875 338.679688 1.039062 340.207031 1.085938 341.753906 C 0.972656 345.351562 1.316406 348.898438 2.117188 352.40625 C 2.917969 355.910156 4.148438 359.257812 5.8125 362.445312 C 7.75 365.925781 10.542969 369.011719 12.382812 372.527344 C 14.222656 376.039062 14.417969 383.230469 10.3125 384.808594 C 9.558594 385.105469 8.277344 385.332031 9.195312 385.300781 C 9.828125 385.328125 10.460938 385.304688 11.085938 385.230469 C 11.714844 385.152344 12.335938 385.027344 12.941406 384.851562 C 13.550781 384.675781 14.140625 384.453125 14.710938 384.179688 C 15.28125 383.910156 15.828125 383.59375 16.347656 383.230469 C 16.867188 382.871094 17.355469 382.46875 17.808594 382.03125 C 18.265625 381.589844 18.679688 381.117188 19.058594 380.605469 C 19.4375 380.097656 19.769531 379.5625 20.058594 379 C 20.351562 378.4375 20.59375 377.855469 20.789062 377.253906 C 26.699219 380.210938 34.1875 380.964844 39.34375 376.238281 C 39.738281 375.875 40.722656 375.644531 40.164062 375.546875 C 37.144531 375.121094 31.496094 374.035156 29.820312 371.148438 C 35.730469 371.148438 42.957031 370.917969 43.972656 363.363281 C 44.035156 362.628906 44.035156 361.894531 43.972656 361.164062 C 43.910156 360.429688 43.785156 359.703125 43.601562 358.992188 C 43.417969 358.277344 43.175781 357.585938 42.875 356.914062 C 42.574219 356.242188 42.222656 355.597656 41.8125 354.984375 C 41.40625 354.371094 40.949219 353.796875 40.441406 353.261719 C 39.9375 352.726562 39.390625 352.238281 38.804688 351.792969 C 38.214844 351.347656 37.59375 350.957031 36.941406 350.617188 C 36.289062 350.277344 35.609375 349.996094 34.910156 349.769531 C 35.523438 350.214844 36.050781 350.746094 36.484375 351.367188 C 36.921875 351.988281 37.242188 352.664062 37.453125 353.394531 C 37.660156 354.121094 37.746094 354.867188 37.703125 355.625 C 37.660156 356.382812 37.496094 357.113281 37.207031 357.8125 C 36.867188 358.34375 36.449219 358.804688 35.953125 359.195312 C 35.460938 359.585938 34.914062 359.886719 34.320312 360.097656 C 33.726562 360.308594 33.117188 360.417969 32.484375 360.425781 C 31.855469 360.433594 31.238281 360.339844 30.640625 360.144531 C 29.714844 359.828125 28.847656 359.390625 28.039062 358.832031 C 27.230469 358.277344 26.515625 357.625 25.886719 356.871094 C 25.257812 356.117188 24.742188 355.296875 24.339844 354.402344 C 23.9375 353.507812 23.664062 352.578125 23.515625 351.609375 C 22.136719 343.890625 29.917969 338.472656 37.078125 340.574219 C 51.066406 344.414062 53.496094 361.753906 48.175781 373.414062 C 43.769531 381.933594 38.121094 389.53125 31.230469 396.203125 L 47.058594 396.203125 C 48.308594 394.824219 49.554688 393.445312 50.769531 392.03125 C 59.046875 382.507812 66.566406 371.96875 68.867188 359.195312 C 70.804688 348.355469 71.132812 335.285156 65.8125 325.269531 C 63.480469 320.835938 57.734375 315.78125 56.914062 310.625 C 56.703125 309.367188 56.648438 308.105469 56.753906 306.835938 C 56.855469 305.566406 57.113281 304.328125 57.523438 303.121094 C 57.933594 301.914062 58.484375 300.777344 59.175781 299.707031 C 59.867188 298.636719 60.675781 297.667969 61.609375 296.796875 C 62.101562 296.339844 62.066406 296.238281 61.34375 296.273438 C 59.894531 296.445312 58.488281 296.800781 57.128906 297.335938 C 55.769531 297.871094 54.503906 298.570312 53.324219 299.433594 C 52.144531 300.296875 51.09375 301.296875 50.171875 302.429688 C 49.25 303.5625 48.484375 304.792969 47.882812 306.125 C 46.601562 304.8125 45.289062 303.53125 44.039062 302.21875 C 36.257812 294.039062 27.882812 285.566406 23.085938 275.191406 C 17.667969 263.464844 20.199219 246.160156 34.21875 242.351562 C 41.378906 240.378906 49.128906 245.632812 47.75 253.417969 C 47.59375 254.328125 47.316406 255.203125 46.917969 256.039062 C 46.515625 256.871094 46.007812 257.636719 45.394531 258.328125 C 44.777344 259.015625 44.078125 259.609375 43.296875 260.105469 C 42.511719 260.597656 41.675781 260.972656 40.789062 261.234375 C 38.324219 261.890625 35.46875 262.019531 34.21875 259.820312 C 31.625 255.058594 36.75 251.546875 36.453125 251.644531 C 35.746094 251.871094 35.0625 252.152344 34.40625 252.492188 C 33.746094 252.832031 33.121094 253.226562 32.527344 253.675781 C 31.9375 254.121094 31.386719 254.613281 30.875 255.15625 C 30.367188 255.695312 29.910156 256.273438 29.496094 256.890625 C 29.085938 257.511719 28.730469 258.15625 28.429688 258.835938 C 28.128906 259.515625 27.890625 260.214844 27.707031 260.933594 C 27.523438 261.652344 27.402344 262.382812 27.34375 263.121094 C 27.285156 263.859375 27.289062 264.597656 27.355469 265.339844 C 28.210938 272.859375 35.566406 273.1875 41.476562 273.121094 C 41.140625 273.785156 40.730469 274.402344 40.242188 274.964844 C 39.757812 275.53125 39.210938 276.03125 38.605469 276.46875 C 38 276.902344 37.351562 277.257812 36.660156 277.535156 C 35.96875 277.8125 35.253906 278.007812 34.515625 278.113281 C 33.957031 278.113281 31.558594 277.816406 31.953125 278.113281 C 37.207031 282.90625 44.566406 282.183594 50.34375 279.359375 C 50.542969 279.957031 50.792969 280.539062 51.085938 281.097656 C 51.378906 281.65625 51.714844 282.1875 52.09375 282.691406 C 52.472656 283.195312 52.890625 283.664062 53.347656 284.101562 C 53.800781 284.539062 54.289062 284.9375 54.808594 285.296875 C 55.324219 285.65625 55.871094 285.96875 56.441406 286.242188 C 57.011719 286.511719 57.597656 286.734375 58.203125 286.914062 C 58.808594 287.089844 59.425781 287.214844 60.050781 287.292969 C 60.679688 287.371094 61.304688 287.398438 61.9375 287.375 C 62.824219 287.375 61.9375 287.046875 61.3125 286.75 C 57.207031 285.171875 57.042969 278.078125 58.71875 274.597656 C 60.394531 271.117188 63.285156 268.03125 65.285156 264.515625 C 66.96875 261.304688 68.210938 257.933594 69.019531 254.398438 C 69.824219 250.863281 70.167969 247.285156 70.046875 243.664062 C 70.09375 242.125 69.945312 240.601562 69.605469 239.097656 C 69.261719 237.59375 68.738281 236.15625 68.03125 234.789062 C 67.324219 233.417969 66.460938 232.160156 65.433594 231.007812 C 64.40625 229.859375 63.25 228.855469 61.96875 228 Z M 61.96875 228 " fill-opacity="1" fill-rule="nonzero"/></g><g clip-path="url(#83b5560816)"><path fill="#ecd224" d="M 130.933594 326.027344 C 129.097656 324.609375 127.085938 323.511719 124.90625 322.726562 C 122.722656 321.941406 120.476562 321.507812 118.15625 321.429688 C 119.515625 319.964844 120.742188 318.398438 121.835938 316.730469 C 125.351562 311.347656 123.675781 304.8125 122.097656 299.0625 C 121.835938 298.113281 121.738281 299.261719 121.640625 300.148438 C 120.851562 306.320312 113.726562 310.691406 107.914062 312.234375 C 106.09375 312.675781 104.253906 313.003906 102.394531 313.21875 C 108.207031 306.847656 114.019531 300.476562 119.636719 293.972656 C 127.910156 284.484375 135.433594 273.910156 137.730469 261.132812 C 139.667969 250.296875 139.996094 237.226562 134.710938 227.210938 C 132.003906 223.054688 130.023438 218.578125 128.765625 213.78125 C 127.910156 209.214844 126.761719 202.550781 130.144531 198.839844 C 130.605469 198.34375 130.933594 198.082031 130.144531 198.117188 C 128.789062 198.277344 127.476562 198.601562 126.203125 199.085938 C 124.929688 199.574219 123.734375 200.210938 122.617188 200.996094 C 121.503906 201.78125 120.5 202.695312 119.613281 203.730469 C 118.726562 204.765625 117.976562 205.890625 117.371094 207.113281 C 115.859375 205.570312 114.347656 204.058594 112.871094 202.484375 L 108.898438 198.28125 C 102.007812 191.59375 96.359375 183.988281 91.953125 175.457031 C 86.566406 163.765625 89.0625 146.425781 103.085938 142.617188 C 110.242188 140.679688 117.992188 145.902344 116.613281 153.683594 C 116.460938 154.597656 116.183594 155.46875 115.78125 156.304688 C 115.382812 157.136719 114.875 157.902344 114.257812 158.59375 C 113.640625 159.285156 112.941406 159.875 112.160156 160.371094 C 111.378906 160.863281 110.542969 161.242188 109.652344 161.5 C 109.078125 161.695312 108.488281 161.78125 107.882812 161.765625 C 107.273438 161.75 106.691406 161.628906 106.128906 161.402344 C 105.5625 161.175781 105.058594 160.859375 104.609375 160.453125 C 104.160156 160.046875 103.792969 159.574219 103.511719 159.035156 C 103.339844 158.394531 103.257812 157.738281 103.273438 157.074219 C 103.289062 156.410156 103.394531 155.757812 103.597656 155.125 C 103.796875 154.492188 104.082031 153.898438 104.453125 153.34375 C 104.824219 152.792969 105.265625 152.304688 105.777344 151.878906 C 106.007812 151.878906 105.777344 151.878906 105.351562 151.878906 C 104.65625 152.105469 103.984375 152.386719 103.335938 152.726562 C 102.6875 153.0625 102.070312 153.453125 101.488281 153.894531 C 100.90625 154.335938 100.363281 154.820312 99.863281 155.355469 C 99.359375 155.886719 98.90625 156.457031 98.5 157.0625 C 98.09375 157.671875 97.738281 158.308594 97.4375 158.976562 C 97.140625 159.640625 96.894531 160.328125 96.710938 161.035156 C 96.527344 161.742188 96.398438 162.460938 96.335938 163.1875 C 96.269531 163.917969 96.265625 164.644531 96.320312 165.375 C 97.171875 172.925781 104.53125 173.222656 110.472656 173.15625 C 108.765625 176.046875 103.90625 177.296875 100.621094 177.722656 C 100.03125 177.722656 100.425781 177.886719 100.785156 178.246094 C 105.976562 182.976562 113.429688 182.222656 119.339844 179.265625 C 119.53125 179.875 119.773438 180.46875 120.0625 181.039062 C 120.351562 181.609375 120.6875 182.152344 121.066406 182.667969 C 121.445312 183.183594 121.863281 183.664062 122.320312 184.113281 C 122.78125 184.558594 123.273438 184.964844 123.796875 185.332031 C 124.320312 185.699219 124.875 186.019531 125.453125 186.292969 C 126.03125 186.566406 126.625 186.792969 127.242188 186.96875 C 127.855469 187.148438 128.484375 187.273438 129.117188 187.347656 C 129.753906 187.421875 130.390625 187.441406 131.03125 187.410156 C 131.917969 187.410156 132.476562 187.210938 131.722656 186.917969 C 127.617188 185.308594 126.136719 178.117188 127.847656 174.636719 C 129.554688 171.152344 132.378906 168.066406 134.414062 164.554688 C 136.066406 161.335938 137.28125 157.957031 138.0625 154.425781 C 138.839844 150.890625 139.15625 147.316406 139.011719 143.699219 C 139.050781 142.160156 138.902344 140.640625 138.558594 139.136719 C 138.214844 137.636719 137.6875 136.199219 136.984375 134.832031 C 136.277344 133.460938 135.410156 132.203125 134.386719 131.050781 C 133.363281 129.902344 132.210938 128.894531 130.933594 128.035156 C 129.097656 126.621094 127.085938 125.523438 124.90625 124.738281 C 122.722656 123.953125 120.476562 123.519531 118.15625 123.4375 C 119.515625 121.976562 120.742188 120.410156 121.835938 118.742188 C 125.351562 113.355469 123.675781 106.820312 122.097656 101.074219 C 121.835938 100.121094 121.835938 100.8125 121.738281 101.664062 C 120.949219 107.871094 113.726562 112.699219 107.914062 114.242188 C 106.09375 114.6875 104.253906 115.015625 102.394531 115.230469 C 108.207031 108.859375 114.019531 102.488281 119.636719 95.984375 C 127.910156 86.492188 135.433594 75.917969 137.730469 63.144531 C 139.667969 52.308594 139.996094 39.203125 134.710938 29.222656 C 132.265625 24.949219 130.285156 20.472656 128.765625 15.789062 C 127.386719 11.355469 126.238281 4.722656 129.617188 1.011719 C 130.046875 0.519531 130.933594 0.09375 130.175781 0.125 C 128.828125 0.273438 127.515625 0.585938 126.246094 1.0625 C 124.972656 1.535156 123.777344 2.160156 122.660156 2.929688 C 121.542969 3.699219 120.535156 4.597656 119.640625 5.617188 C 118.746094 6.636719 117.988281 7.75 117.371094 8.960938 L 112.738281 4.429688 L 108.898438 0.222656 L 93.035156 0.222656 C 98.191406 6.035156 103.378906 11.75 108.601562 17.5 C 106.105469 17.070312 103.542969 16.875 101.082031 16.21875 C 95.367188 14.675781 88.273438 9.484375 87.519531 3.277344 C 87.519531 2.425781 87.257812 2.0625 86.992188 3.015625 C 85.417969 8.796875 83.710938 15.296875 87.257812 20.683594 C 88.34375 22.355469 89.570312 23.921875 90.933594 25.378906 C 88.609375 25.460938 86.355469 25.898438 84.167969 26.6875 C 81.980469 27.480469 79.964844 28.585938 78.125 30.011719 C 76.847656 30.871094 75.695312 31.875 74.671875 33.023438 C 73.648438 34.175781 72.78125 35.4375 72.078125 36.804688 C 71.371094 38.175781 70.84375 39.609375 70.503906 41.113281 C 70.160156 42.613281 70.007812 44.132812 70.046875 45.675781 C 69.949219 49.273438 70.304688 52.828125 71.109375 56.339844 C 71.917969 59.847656 73.148438 63.199219 74.808594 66.394531 C 76.714844 69.84375 79.539062 72.964844 81.378906 76.476562 C 83.21875 79.992188 82.394531 87.183594 78.289062 88.761719 C 77.535156 89.054688 77.273438 89.285156 78.289062 89.253906 C 78.914062 89.265625 79.539062 89.230469 80.15625 89.148438 C 80.777344 89.0625 81.382812 88.929688 81.980469 88.75 C 82.578125 88.566406 83.160156 88.339844 83.722656 88.070312 C 84.285156 87.796875 84.820312 87.480469 85.332031 87.121094 C 85.84375 86.765625 86.324219 86.367188 86.773438 85.933594 C 87.222656 85.5 87.636719 85.03125 88.011719 84.535156 C 88.386719 84.035156 88.71875 83.507812 89.011719 82.957031 C 89.304688 82.402344 89.550781 81.832031 89.75 81.238281 C 95.628906 84.195312 103.117188 84.917969 108.273438 80.1875 C 108.667969 79.828125 108.765625 79.695312 108.273438 79.628906 C 105.253906 79.203125 100.554688 78.019531 98.847656 75.132812 C 104.757812 75.132812 111.984375 74.867188 113.003906 67.347656 C 113.0625 66.613281 113.0625 65.878906 113 65.148438 C 112.9375 64.414062 112.816406 63.6875 112.632812 62.976562 C 112.449219 62.261719 112.207031 61.570312 111.90625 60.898438 C 111.605469 60.226562 111.25 59.582031 110.839844 58.96875 C 110.433594 58.355469 109.976562 57.78125 109.472656 57.246094 C 108.964844 56.710938 108.417969 56.222656 107.832031 55.777344 C 107.246094 55.332031 106.625 54.941406 105.96875 54.601562 C 105.316406 54.261719 104.640625 53.980469 103.9375 53.753906 C 103.644531 53.753906 103.9375 53.949219 104.136719 54.148438 C 104.796875 55.074219 105.226562 56.101562 105.414062 57.222656 C 105.605469 58.347656 105.539062 59.457031 105.21875 60.550781 C 105.125 60.820312 105.003906 61.078125 104.855469 61.324219 C 104.710938 61.570312 104.542969 61.800781 104.351562 62.015625 C 104.164062 62.230469 103.953125 62.421875 103.726562 62.597656 C 103.5 62.769531 103.257812 62.921875 103 63.050781 C 102.746094 63.175781 102.476562 63.277344 102.203125 63.355469 C 101.925781 63.429688 101.644531 63.480469 101.359375 63.503906 C 101.074219 63.523438 100.789062 63.519531 100.503906 63.488281 C 100.222656 63.453125 99.941406 63.394531 99.667969 63.308594 C 98.78125 63.054688 97.941406 62.683594 97.15625 62.191406 C 96.375 61.699219 95.671875 61.113281 95.054688 60.421875 C 94.433594 59.734375 93.921875 58.976562 93.519531 58.140625 C 93.113281 57.308594 92.832031 56.4375 92.675781 55.527344 C 92.621094 55.097656 92.597656 54.664062 92.601562 54.230469 C 92.601562 53.796875 92.632812 53.367188 92.6875 52.9375 C 92.746094 52.507812 92.828125 52.082031 92.9375 51.664062 C 93.046875 51.246094 93.183594 50.832031 93.347656 50.429688 C 93.507812 50.03125 93.691406 49.640625 93.902344 49.261719 C 94.113281 48.882812 94.347656 48.515625 94.605469 48.167969 C 94.859375 47.820312 95.136719 47.488281 95.4375 47.171875 C 95.734375 46.859375 96.050781 46.5625 96.386719 46.289062 C 96.722656 46.011719 97.070312 45.761719 97.4375 45.53125 C 97.804688 45.300781 98.183594 45.09375 98.578125 44.910156 C 98.972656 44.726562 99.375 44.570312 99.785156 44.4375 C 100.199219 44.304688 100.617188 44.199219 101.042969 44.121094 C 101.46875 44.039062 101.898438 43.988281 102.332031 43.960938 C 102.765625 43.9375 103.195312 43.9375 103.628906 43.964844 C 104.0625 43.996094 104.492188 44.050781 104.914062 44.132812 C 105.339844 44.214844 105.761719 44.324219 106.171875 44.460938 C 120.195312 48.335938 122.589844 65.640625 117.269531 77.300781 C 112.507812 87.644531 104.136719 96.148438 96.320312 104.324219 C 95.070312 105.640625 93.792969 106.921875 92.511719 108.234375 C 91.902344 106.90625 91.136719 105.675781 90.214844 104.546875 C 89.289062 103.414062 88.238281 102.417969 87.058594 101.554688 C 85.882812 100.691406 84.613281 99.992188 83.257812 99.457031 C 81.898438 98.917969 80.496094 98.558594 79.046875 98.382812 C 78.289062 98.382812 79.472656 99.136719 79.933594 99.628906 C 83.21875 103.339844 81.3125 109.480469 80.457031 114.011719 C 79.214844 118.816406 77.234375 123.292969 74.515625 127.445312 C 69.226562 137.296875 69.554688 150.433594 71.492188 161.367188 C 73.757812 174.042969 81.34375 184.617188 89.554688 194.207031 L 93.035156 198.214844 C 98.203125 204.039062 103.390625 209.796875 108.601562 215.488281 C 106.105469 215.0625 103.542969 214.863281 101.082031 214.207031 C 95.269531 212.664062 88.175781 206.652344 87.421875 200.480469 C 87.421875 199.59375 87.15625 200.054688 86.894531 201.039062 C 85.320312 206.785156 83.609375 213.289062 87.15625 218.707031 C 88.285156 220.417969 89.546875 222.027344 90.933594 223.535156 C 88.609375 223.601562 86.351562 224.027344 84.164062 224.8125 C 81.976562 225.597656 79.964844 226.707031 78.125 228.132812 C 76.859375 228.984375 75.714844 229.980469 74.695312 231.121094 C 73.675781 232.261719 72.8125 233.511719 72.109375 234.867188 C 71.402344 236.226562 70.875 237.648438 70.527344 239.136719 C 70.179688 240.625 70.019531 242.136719 70.046875 243.664062 C 69.949219 247.265625 70.300781 250.820312 71.109375 254.328125 C 71.914062 257.839844 73.148438 261.191406 74.808594 264.386719 C 76.714844 267.667969 79.539062 270.953125 81.378906 274.46875 C 83.21875 277.980469 83.21875 285.042969 79.144531 286.617188 C 78.390625 286.914062 77.273438 287.273438 78.191406 287.242188 C 78.816406 287.265625 79.441406 287.234375 80.058594 287.160156 C 80.679688 287.082031 81.289062 286.957031 81.890625 286.78125 C 82.492188 286.609375 83.074219 286.390625 83.640625 286.121094 C 84.207031 285.855469 84.746094 285.546875 85.261719 285.195312 C 85.78125 284.84375 86.265625 284.453125 86.71875 284.023438 C 87.175781 283.59375 87.59375 283.132812 87.972656 282.636719 C 88.355469 282.140625 88.695312 281.617188 88.992188 281.070312 C 89.289062 280.519531 89.542969 279.949219 89.75 279.359375 C 90.460938 279.773438 91.195312 280.132812 91.957031 280.4375 C 92.71875 280.742188 93.496094 280.992188 94.296875 281.183594 C 95.09375 281.375 95.898438 281.507812 96.71875 281.582031 C 97.535156 281.652344 98.351562 281.667969 99.171875 281.621094 C 99.988281 281.574219 100.800781 281.46875 101.605469 281.304688 C 102.40625 281.136719 103.195312 280.914062 103.964844 280.636719 C 104.738281 280.355469 105.484375 280.019531 106.203125 279.628906 C 106.925781 279.242188 107.617188 278.800781 108.273438 278.308594 C 108.699219 278.015625 109.585938 277.785156 109.027344 277.71875 C 105.976562 277.257812 100.457031 276.140625 98.75 273.253906 C 104.660156 273.253906 111.886719 272.988281 112.902344 265.46875 C 112.964844 264.734375 112.964844 264 112.902344 263.269531 C 112.839844 262.535156 112.71875 261.808594 112.53125 261.097656 C 112.347656 260.382812 112.105469 259.691406 111.804688 259.019531 C 111.507812 258.347656 111.152344 257.703125 110.742188 257.089844 C 110.335938 256.476562 109.878906 255.902344 109.371094 255.367188 C 108.867188 254.832031 108.320312 254.339844 107.734375 253.898438 C 107.144531 253.453125 106.523438 253.0625 105.871094 252.722656 C 105.21875 252.382812 104.542969 252.101562 103.839844 251.875 C 103.542969 251.875 108.765625 255.15625 106.140625 259.886719 C 104.921875 262.085938 102 262.121094 99.570312 261.464844 C 98.679688 261.207031 97.839844 260.832031 97.054688 260.339844 C 96.269531 259.847656 95.566406 259.253906 94.945312 258.5625 C 94.328125 257.871094 93.816406 257.109375 93.414062 256.273438 C 93.011719 255.4375 92.730469 254.5625 92.574219 253.648438 C 92.515625 253.210938 92.484375 252.773438 92.480469 252.335938 C 92.476562 251.894531 92.5 251.457031 92.550781 251.019531 C 92.601562 250.582031 92.683594 250.152344 92.789062 249.726562 C 92.894531 249.300781 93.027344 248.882812 93.1875 248.472656 C 93.347656 248.0625 93.535156 247.664062 93.746094 247.277344 C 93.957031 246.894531 94.191406 246.523438 94.449219 246.167969 C 94.707031 245.808594 94.984375 245.472656 95.285156 245.152344 C 95.585938 244.832031 95.90625 244.53125 96.246094 244.253906 C 96.585938 243.972656 96.941406 243.714844 97.3125 243.480469 C 97.6875 243.246094 98.070312 243.039062 98.46875 242.851562 C 98.871094 242.667969 99.277344 242.507812 99.699219 242.375 C 100.117188 242.242188 100.542969 242.136719 100.976562 242.058594 C 101.40625 241.980469 101.84375 241.929688 102.28125 241.90625 C 102.722656 241.882812 103.160156 241.886719 103.597656 241.921875 C 104.035156 241.953125 104.472656 242.015625 104.902344 242.101562 C 105.332031 242.191406 105.753906 242.308594 106.171875 242.449219 C 120.195312 246.324219 122.589844 263.628906 117.269531 275.289062 C 112.507812 285.664062 104.136719 294.136719 96.320312 302.316406 C 95.070312 303.628906 93.792969 304.910156 92.511719 306.222656 C 91.902344 304.894531 91.136719 303.667969 90.214844 302.535156 C 89.289062 301.402344 88.238281 300.40625 87.058594 299.546875 C 85.882812 298.683594 84.613281 297.984375 83.257812 297.445312 C 81.898438 296.90625 80.496094 296.550781 79.046875 296.371094 C 78.289062 296.371094 79.835938 297.683594 80.292969 298.175781 C 81.132812 299.074219 81.824219 300.078125 82.367188 301.179688 C 82.90625 302.285156 83.273438 303.445312 83.464844 304.660156 C 83.660156 305.875 83.671875 307.089844 83.5 308.308594 C 83.328125 309.527344 82.980469 310.691406 82.460938 311.804688 C 80.753906 316.765625 76.910156 320.933594 74.515625 325.433594 C 69.226562 335.285156 69.554688 348.421875 71.492188 359.359375 C 73.757812 372.066406 81.34375 382.609375 89.554688 392.199219 L 93.035156 396.203125 L 108.765625 396.203125 C 101.875 389.53125 96.226562 381.933594 91.820312 373.414062 C 86.433594 361.6875 88.929688 344.351562 102.953125 340.574219 C 110.113281 338.601562 117.863281 343.859375 116.484375 351.609375 C 116.328125 352.519531 116.050781 353.394531 115.652344 354.226562 C 115.25 355.0625 114.742188 355.824219 114.125 356.515625 C 113.511719 357.207031 112.8125 357.800781 112.027344 358.292969 C 111.246094 358.789062 110.410156 359.164062 109.519531 359.421875 C 108.898438 359.605469 108.265625 359.679688 107.617188 359.640625 C 106.96875 359.605469 106.347656 359.460938 105.746094 359.210938 C 105.148438 358.957031 104.609375 358.613281 104.132812 358.179688 C 103.652344 357.742188 103.257812 357.238281 102.953125 356.664062 C 102.816406 356.375 102.703125 356.074219 102.625 355.765625 C 102.542969 355.453125 102.496094 355.136719 102.476562 354.816406 C 102.457031 354.496094 102.46875 354.175781 102.511719 353.859375 C 102.554688 353.539062 102.625 353.230469 102.730469 352.925781 C 102.832031 352.621094 102.964844 352.332031 103.125 352.050781 C 103.285156 351.773438 103.46875 351.511719 103.679688 351.269531 C 103.890625 351.027344 104.125 350.808594 104.375 350.609375 C 104.628906 350.414062 104.898438 350.242188 105.1875 350.097656 C 105.417969 350.097656 105.582031 349.671875 105.1875 349.734375 C 104.492188 349.96875 103.824219 350.261719 103.179688 350.609375 C 102.535156 350.957031 101.921875 351.351562 101.34375 351.800781 C 100.765625 352.25 100.230469 352.746094 99.734375 353.285156 C 99.238281 353.824219 98.789062 354.398438 98.390625 355.011719 C 97.992188 355.628906 97.644531 356.269531 97.355469 356.941406 C 97.0625 357.613281 96.828125 358.304688 96.652344 359.015625 C 96.476562 359.726562 96.359375 360.445312 96.304688 361.175781 C 96.25 361.90625 96.253906 362.636719 96.320312 363.363281 C 97.171875 370.917969 104.53125 371.210938 110.472656 371.148438 C 110.152344 371.886719 109.730469 372.566406 109.210938 373.183594 C 108.6875 373.796875 108.089844 374.324219 107.410156 374.761719 C 106.730469 375.203125 106.003906 375.53125 105.230469 375.753906 C 104.453125 375.980469 103.660156 376.085938 102.855469 376.074219 C 102.265625 376.074219 100.554688 375.875 100.917969 376.074219 C 106.105469 380.800781 113.5625 380.046875 119.472656 377.089844 C 119.667969 377.691406 119.914062 378.273438 120.203125 378.832031 C 120.496094 379.394531 120.832031 379.925781 121.207031 380.433594 C 121.585938 380.941406 122.003906 381.410156 122.457031 381.851562 C 122.914062 382.289062 123.398438 382.6875 123.921875 383.046875 C 124.441406 383.40625 124.984375 383.722656 125.554688 383.992188 C 126.128906 384.261719 126.714844 384.484375 127.324219 384.660156 C 127.929688 384.835938 128.546875 384.960938 129.175781 385.035156 C 129.804688 385.109375 130.433594 385.132812 131.0625 385.105469 C 131.949219 385.105469 132.476562 385.105469 131.722656 384.742188 C 127.617188 383.167969 126.171875 375.84375 127.878906 372.328125 C 129.585938 368.816406 132.410156 365.761719 134.445312 362.246094 C 136.066406 359.082031 137.261719 355.761719 138.035156 352.292969 C 138.808594 348.820312 139.132812 345.308594 139.011719 341.753906 C 139.058594 340.210938 138.910156 338.683594 138.570312 337.175781 C 138.230469 335.667969 137.707031 334.226562 137 332.847656 C 136.292969 331.472656 135.425781 330.207031 134.398438 329.054688 C 133.371094 327.898438 132.214844 326.886719 130.933594 326.027344 Z M 130.933594 326.027344 " fill-opacity="1" fill-rule="nonzero"/></g></g></g></g></svg>