<svg xmlns="http://www.w3.org/2000/svg" xmlns:xlink="http://www.w3.org/1999/xlink" width="227" zoomAndPan="magnify" viewBox="0 0 170.25 56.999997" height="76" preserveAspectRatio="xMidYMid meet" version="1.0"><defs><clipPath id="886b380546"><path d="M 0 0.125 L 169.503906 0.125 L 169.503906 56.875 L 0 56.875 Z M 0 0.125 " clip-rule="nonzero"/></clipPath><clipPath id="7259a1b610"><path d="M 130 29 L 144 29 L 144 56.246094 L 130 56.246094 Z M 130 29 " clip-rule="nonzero"/></clipPath><clipPath id="c446feea5f"><path d="M 49 0.125 L 76 0.125 L 76 19 L 49 19 Z M 49 0.125 " clip-rule="nonzero"/></clipPath><clipPath id="c48aff631a"><path d="M 136 21 L 169.503906 21 L 169.503906 33 L 136 33 Z M 136 21 " clip-rule="nonzero"/></clipPath><clipPath id="9c24defa10"><rect x="0" width="170" y="0" height="57"/></clipPath></defs><g clip-path="url(#886b380546)"><g transform="matrix(1, 0, 0, 1, 0, -0.000000000000000985)"><g clip-path="url(#9c24defa10)"><path fill="#ffde59" d="M 112.949219 44.757812 L 112.738281 44.769531 C 112.164062 44.804688 111.546875 44.820312 110.886719 44.820312 L 103.851562 44.535156 C 103.457031 44.535156 102 44.757812 99.488281 45.195312 C 99.21875 45.1875 99.101562 45.070312 99.125 44.84375 C 102.300781 39.523438 104.179688 36.542969 104.765625 35.914062 C 106.066406 34.324219 107.425781 32.976562 108.835938 31.871094 C 111.039062 30.183594 113.082031 29.007812 114.972656 28.339844 C 116.867188 27.570312 118.992188 27.074219 121.347656 26.859375 C 122.800781 26.757812 124.105469 26.785156 125.261719 26.9375 C 125.84375 27.015625 126.386719 27.125 126.890625 27.265625 C 127.398438 27.40625 127.867188 27.578125 128.300781 27.785156 L 128.925781 28.117188 L 128.703125 30.75 L 128.28125 32.625 C 127.957031 33.828125 127.546875 34.945312 127.042969 35.972656 C 126.542969 37.003906 125.953125 37.945312 125.277344 38.800781 L 124.199219 40.015625 C 123.433594 40.78125 122.582031 41.460938 121.640625 42.050781 C 120.199219 42.925781 118.753906 43.5625 117.304688 43.957031 C 115.652344 44.410156 114.203125 44.675781 112.949219 44.757812 " fill-opacity="1" fill-rule="nonzero"/><g clip-path="url(#7259a1b610)"><path fill="#ffde59" d="M 138.011719 56.371094 L 137.984375 56.371094 C 137.917969 56.375 137.847656 56.355469 137.785156 56.324219 C 136.847656 55.027344 136 53.777344 135.238281 52.574219 C 134.476562 51.375 133.804688 50.222656 133.222656 49.117188 L 132.414062 47.496094 C 131.917969 46.441406 131.511719 45.433594 131.191406 44.476562 C 130.871094 43.515625 130.644531 42.605469 130.5 41.746094 C 130.335938 40.773438 130.253906 39.765625 130.253906 38.71875 L 130.269531 37.929688 C 130.289062 37.398438 130.332031 36.855469 130.394531 36.308594 C 130.457031 35.757812 130.542969 35.199219 130.644531 34.632812 C 130.957031 33.304688 131.160156 32.5625 131.25 32.402344 C 131.402344 31.972656 131.566406 31.589844 131.742188 31.25 C 132.097656 30.566406 132.496094 30.066406 132.941406 29.742188 L 135.5625 31.25 L 137.023438 32.289062 C 137.949219 33.003906 138.765625 33.757812 139.484375 34.558594 C 140.199219 35.355469 140.8125 36.195312 141.320312 37.078125 L 142.007812 38.433594 L 142.539062 39.855469 L 142.917969 41.335938 L 143.140625 42.882812 C 143.179688 43.40625 143.191406 43.925781 143.175781 44.4375 C 143.164062 44.953125 143.125 45.460938 143.058594 45.960938 C 142.992188 46.460938 142.898438 46.957031 142.78125 47.445312 L 142.582031 48.175781 C 142.226562 49.375 141.550781 50.902344 140.550781 52.761719 C 140.152344 53.511719 139.546875 54.523438 138.730469 55.796875 C 138.542969 56.105469 138.300781 56.296875 138.011719 56.371094 " fill-opacity="1" fill-rule="nonzero"/></g><path fill="#ffde59" d="M 129.710938 25.996094 L 127.894531 25.917969 L 127 25.8125 C 126.386719 25.703125 125.742188 25.511719 125.070312 25.246094 C 124.398438 24.976562 123.695312 24.632812 122.964844 24.207031 C 121.5 23.359375 119.921875 22.195312 118.21875 20.71875 C 117.140625 19.761719 115.835938 18.164062 114.300781 15.9375 L 111.347656 11.242188 C 111.257812 11.027344 111.367188 10.925781 111.671875 10.929688 C 114.621094 11.214844 117.242188 11.734375 119.539062 12.488281 C 120.359375 12.785156 121.1875 13.167969 122.019531 13.632812 C 122.644531 13.933594 123.699219 14.644531 125.191406 15.761719 C 126.949219 17.34375 128.179688 18.890625 128.882812 20.40625 C 130.027344 22.992188 130.304688 24.855469 129.710938 25.996094 " fill-opacity="1" fill-rule="nonzero"/><path fill="#ffde59" d="M 130.691406 28.71875 L 131.242188 28.3125 C 136.964844 24.988281 138.011719 19.683594 134.382812 12.402344 C 131.121094 7.324219 125.445312 4.644531 117.359375 4.371094 C 112.621094 4.1875 107.144531 5.355469 100.941406 7.867188 C 96.339844 9.820312 92.691406 11.503906 89.996094 12.921875 C 74.683594 21.96875 65.9375 26.925781 63.75 27.785156 C 57.410156 30.722656 51.695312 32.625 46.601562 33.492188 C 37.785156 34.871094 29.507812 34.742188 21.769531 33.101562 C 14.789062 31.585938 8.039062 28.566406 1.515625 24.042969 C 4.171875 25.46875 8.378906 27.195312 14.140625 29.230469 C 16.738281 30.140625 20.183594 30.980469 24.476562 31.742188 C 27.117188 32.238281 30.578125 32.515625 34.863281 32.570312 C 39.753906 32.472656 43.898438 32.121094 47.296875 31.507812 C 52.277344 30.480469 57.683594 28.585938 63.511719 25.828125 C 66.058594 24.71875 74.441406 19.945312 88.660156 11.5 C 91.894531 9.824219 95.738281 8.039062 100.191406 6.140625 C 106.53125 3.546875 112.367188 2.328125 117.699219 2.496094 C 127.234375 3.125 133.523438 6.445312 136.554688 12.457031 C 139.875 20.664062 137.921875 26.085938 130.691406 28.71875 " fill-opacity="1" fill-rule="nonzero"/><path fill="#ffde59" d="M 38.617188 40.328125 L 38.46875 40.339844 C 35.203125 40.585938 31.765625 40.484375 28.164062 40.039062 C 24.902344 39.496094 21.648438 38.746094 18.398438 37.789062 C 11.105469 35.488281 5.792969 32.773438 2.457031 29.648438 L 9.480469 32.804688 C 11.261719 33.550781 13.136719 34.242188 15.101562 34.886719 C 20.636719 36.632812 25.246094 37.75 28.9375 38.242188 C 32.136719 38.632812 35.960938 38.726562 40.414062 38.523438 C 41.625 38.449219 43.011719 38.3125 44.578125 38.109375 L 54.785156 36.726562 C 54.878906 36.714844 54.625 36.777344 54.027344 36.90625 C 52.515625 37.425781 51.164062 37.855469 49.96875 38.1875 C 48.8125 38.515625 47.480469 38.851562 45.972656 39.195312 C 43.210938 39.828125 40.761719 40.207031 38.617188 40.328125 " fill-opacity="1" fill-rule="nonzero"/><path fill="#ffde59" d="M 30.667969 26.132812 L 30.441406 26.148438 C 26.085938 26.425781 22.039062 26.054688 18.292969 25.027344 C 13.40625 23.777344 10.078125 22.273438 8.300781 20.523438 C 12.519531 22.335938 17.425781 23.550781 23.019531 24.167969 C 27.511719 24.621094 32.089844 24.367188 36.757812 23.40625 C 39.976562 22.777344 43.167969 21.753906 46.339844 20.339844 C 47.847656 19.652344 49.203125 18.960938 50.410156 18.261719 C 57.285156 13.824219 62.074219 10.933594 64.773438 9.59375 C 67.589844 8.160156 70.097656 7.375 72.296875 7.238281 C 72.957031 7.195312 73.703125 7.179688 74.535156 7.1875 C 71.839844 7.6875 69.273438 8.625 66.832031 10.003906 C 66.035156 10.421875 64.929688 11.085938 63.519531 11.992188 C 55.820312 17.0625 52.046875 19.523438 52.195312 19.378906 C 50.777344 20.234375 49.183594 21.078125 47.40625 21.90625 C 42.363281 24.234375 36.785156 25.644531 30.667969 26.132812 " fill-opacity="1" fill-rule="nonzero"/><g clip-path="url(#c446feea5f)"><path fill="#ffde59" d="M 49.953125 18.996094 L 51.109375 18.066406 C 52.585938 16.839844 53.808594 15.664062 54.777344 14.53125 C 55.265625 13.964844 55.6875 13.410156 56.042969 12.871094 L 57.605469 10.117188 C 59.335938 6.972656 60.5 3.398438 61.089844 -0.597656 C 61.523438 0.191406 61.878906 0.976562 62.160156 1.757812 C 62.414062 2.34375 62.648438 3.3125 62.859375 4.667969 C 62.980469 6.136719 62.777344 7.429688 62.253906 8.550781 C 65.476562 7.632812 67.492188 7.101562 68.304688 6.957031 C 69.589844 6.671875 70.613281 6.503906 71.371094 6.453125 C 72.574219 6.332031 73.707031 6.378906 74.765625 6.597656 C 75.316406 6.734375 75.601562 7.011719 75.621094 7.417969 C 75.515625 7.589844 75.175781 7.789062 74.59375 8.019531 C 69.847656 9.582031 65.355469 11.332031 61.117188 13.269531 C 59.390625 14.054688 57.871094 14.78125 56.550781 15.453125 C 55.230469 16.125 54.117188 16.738281 53.203125 17.296875 L 49.953125 18.996094 " fill-opacity="1" fill-rule="nonzero"/></g><path fill="#ffde59" d="M 46.113281 39.933594 L 45.949219 39.945312 C 45.503906 39.972656 45.070312 39.976562 44.640625 39.957031 L 44.039062 39.910156 C 43.648438 39.871094 43.285156 39.824219 42.941406 39.761719 C 41.910156 39.582031 41.089844 39.296875 40.472656 38.90625 L 36.117188 39.578125 C 36.75 39.484375 37.753906 39.246094 39.136719 38.871094 C 44.421875 37.191406 48.421875 36 51.128906 35.289062 C 52.707031 34.875 54.238281 34.609375 55.726562 34.492188 C 56.253906 34.441406 56.953125 34.4375 57.816406 34.480469 C 58.042969 34.46875 58.570312 34.546875 59.398438 34.714844 C 60.605469 34.996094 61.128906 35.269531 60.972656 35.535156 C 60.914062 35.566406 60.824219 35.601562 60.695312 35.636719 C 60.082031 35.765625 59.222656 35.980469 58.121094 36.273438 C 57.609375 36.410156 56.980469 36.605469 56.226562 36.855469 C 55.441406 37.113281 53.792969 37.730469 51.285156 38.710938 C 50.46875 39 49.835938 39.210938 49.390625 39.335938 C 48.253906 39.660156 47.164062 39.863281 46.113281 39.933594 " fill-opacity="1" fill-rule="nonzero"/><path fill="#ffde59" d="M 44.921875 40.238281 L 44.832031 40.242188 C 43.503906 40.324219 42.433594 40.335938 41.617188 40.285156 C 41.15625 40.261719 40.703125 40.226562 40.257812 40.175781 C 40.023438 40.167969 39.378906 40.066406 38.324219 39.863281 L 50.71875 36.507812 C 51.714844 36.265625 52.960938 35.992188 54.457031 35.695312 C 55.035156 35.570312 55.871094 35.457031 56.964844 35.359375 C 57.777344 35.316406 58.402344 35.3125 58.847656 35.34375 C 59.40625 35.367188 60.011719 35.414062 60.660156 35.480469 C 59 36.265625 57.449219 36.945312 56.011719 37.519531 C 53.804688 38.390625 51.949219 39.003906 50.445312 39.355469 C 48.589844 39.816406 46.746094 40.109375 44.921875 40.238281 " fill-opacity="1" fill-rule="nonzero"/><path fill="#ffde59" d="M 12.433594 24.898438 L 11.734375 24.925781 L 11.0625 24.90625 C 10.625 24.878906 10.210938 24.820312 9.816406 24.730469 C 9.425781 24.644531 9.050781 24.523438 8.699219 24.371094 C 8.347656 24.222656 8.019531 24.039062 7.710938 23.828125 L 7.261719 23.488281 L 3.277344 21.714844 C 4.253906 21.53125 5.242188 21.1875 6.242188 20.675781 C 6.703125 20.457031 8.019531 19.65625 10.199219 18.269531 C 11.054688 17.808594 11.871094 17.4375 12.640625 17.152344 C 13.238281 16.90625 14.316406 16.636719 15.871094 16.339844 C 16.988281 16.171875 18.066406 16.074219 19.105469 16.050781 C 21.335938 16 23.460938 16.277344 25.472656 16.878906 C 26.144531 17.082031 26.804688 17.316406 27.453125 17.59375 L 28.339844 18.015625 C 29.113281 18.375 29.464844 18.683594 29.402344 18.933594 C 27.628906 19.140625 26.089844 19.480469 24.789062 19.953125 C 24.027344 20.207031 23.25 20.535156 22.460938 20.933594 C 21.933594 21.171875 20.230469 22.058594 17.351562 23.589844 C 17.023438 23.746094 16.695312 23.890625 16.363281 24.019531 C 15.160156 24.496094 13.851562 24.789062 12.433594 24.898438 " fill-opacity="1" fill-rule="nonzero"/><path fill="#ffde59" d="M 4.484375 40.910156 L 4.472656 40.910156 C 4.332031 40.945312 4.152344 40.71875 3.941406 40.226562 L 1.339844 34.199219 C 0.859375 33.023438 0.476562 31.769531 0.191406 30.4375 C 0.0820312 29.757812 0.03125 29.359375 0.03125 29.234375 C 0.0117188 28.972656 0.00390625 28.714844 0.00390625 28.464844 C 0.00390625 27.960938 0.0429688 27.476562 0.121094 27.011719 C 0.238281 26.441406 0.386719 25.949219 0.558594 25.542969 L 0.695312 25.253906 C 0.789062 25.074219 0.890625 24.910156 1 24.769531 C 1.105469 24.628906 1.222656 24.507812 1.34375 24.40625 L 2.910156 25.457031 C 3.367188 25.871094 3.78125 26.304688 4.148438 26.757812 L 4.667969 27.445312 L 5.121094 28.164062 C 5.398438 28.648438 5.628906 29.152344 5.816406 29.675781 L 6.0625 30.472656 L 6.242188 31.292969 C 6.34375 32.039062 6.390625 32.425781 6.386719 32.457031 C 6.402344 32.671875 6.410156 32.898438 6.40625 33.132812 C 6.402344 33.371094 6.390625 33.617188 6.367188 33.875 C 6.371094 33.988281 6.316406 34.398438 6.207031 35.101562 L 6.121094 35.542969 L 5.328125 38.15625 L 4.792969 40.5 C 4.738281 40.730469 4.632812 40.867188 4.484375 40.910156 " fill-opacity="1" fill-rule="nonzero"/><path fill="#ffde59" d="M 82.214844 23.691406 L 81.9375 23.707031 C 81.207031 23.75 80.589844 23.738281 80.078125 23.671875 L 79.257812 23.519531 C 78.730469 23.402344 78.242188 23.253906 77.792969 23.070312 C 76.441406 22.527344 75.4375 21.691406 74.78125 20.570312 L 77.585938 19.589844 C 79.675781 20.402344 81.503906 20.914062 83.066406 21.121094 L 83.824219 21.203125 C 84.316406 21.238281 84.78125 21.242188 85.210938 21.210938 C 85.746094 21.167969 86.140625 21.101562 86.394531 21.007812 C 86.570312 20.929688 86.601562 20.832031 86.496094 20.707031 C 86.445312 20.640625 86.011719 20.339844 85.199219 19.8125 C 84.121094 19.132812 82.871094 18.523438 81.453125 17.980469 C 81.214844 17.84375 81.054688 17.734375 80.972656 17.65625 C 80.632812 17.4375 81.125 17.289062 82.449219 17.203125 C 83.339844 17.171875 84.007812 17.21875 84.453125 17.339844 C 85.195312 17.507812 85.949219 17.808594 86.714844 18.238281 C 86.816406 18.28125 87.226562 18.539062 87.941406 19.019531 L 88.324219 19.332031 L 91.535156 22.167969 C 91.636719 22.253906 91.699219 22.355469 91.71875 22.472656 C 91.703125 22.578125 91.523438 22.648438 91.183594 22.683594 C 89.601562 22.808594 88.378906 22.921875 87.511719 23.019531 L 83.449219 23.570312 C 83.113281 23.617188 82.699219 23.660156 82.214844 23.691406 " fill-opacity="1" fill-rule="nonzero"/><path fill="#ffde59" d="M 76.558594 42.980469 L 76.066406 43 C 73.726562 43.023438 71.808594 42.105469 70.316406 40.25 C 69.582031 39.371094 69.132812 38.429688 68.972656 37.421875 C 68.835938 36.285156 68.933594 35.339844 69.273438 34.585938 C 69.507812 34.078125 69.867188 33.640625 70.351562 33.277344 C 70.761719 32.90625 71.433594 32.625 72.363281 32.429688 C 73.847656 32.167969 75.167969 32.484375 76.328125 33.378906 C 77.132812 34.039062 77.582031 34.710938 77.679688 35.398438 C 77.726562 35.742188 77.6875 36.089844 77.558594 36.441406 C 77.433594 36.792969 77.214844 37.144531 76.914062 37.503906 C 76.820312 37.582031 76.726562 37.648438 76.632812 37.710938 C 75.757812 38.296875 74.863281 38.171875 73.957031 37.335938 C 73.554688 36.828125 73.480469 36.355469 73.734375 35.925781 C 73.804688 35.832031 73.941406 35.78125 74.144531 35.765625 C 74.925781 35.886719 75.390625 35.929688 75.535156 35.898438 C 75.722656 35.835938 75.8125 35.671875 75.804688 35.402344 L 75.765625 35.179688 C 75.671875 34.960938 75.558594 34.765625 75.417969 34.59375 C 75.277344 34.421875 75.113281 34.277344 74.925781 34.15625 C 74.550781 33.917969 74.078125 33.777344 73.507812 33.738281 L 73.0625 33.726562 C 72.492188 33.835938 72 33.992188 71.589844 34.195312 C 71.179688 34.398438 70.851562 34.644531 70.601562 34.941406 C 70.105469 35.53125 69.929688 36.308594 70.074219 37.273438 L 70.246094 38.03125 L 70.496094 38.496094 C 70.679688 38.800781 70.898438 39.085938 71.144531 39.351562 C 71.640625 39.886719 72.265625 40.351562 73.015625 40.746094 C 74.496094 41.539062 76.035156 41.75 77.636719 41.371094 C 78.398438 41.167969 79.042969 40.914062 79.574219 40.613281 C 79.96875 40.394531 80.332031 40.144531 80.660156 39.863281 C 81.320312 39.296875 81.847656 38.601562 82.242188 37.78125 C 82.679688 36.921875 82.902344 36.007812 82.914062 35.042969 C 82.929688 34.574219 82.902344 34.113281 82.832031 33.652344 L 82.695312 32.964844 C 82.582031 32.507812 82.429688 32.054688 82.230469 31.605469 C 81.246094 29.355469 79.425781 27.542969 76.777344 26.175781 C 73.855469 24.640625 71.132812 23.957031 68.605469 24.121094 L 76.0625 20.492188 C 80.4375 25.0625 82.773438 27.703125 83.074219 28.410156 C 84.261719 30.214844 84.929688 32.054688 85.070312 33.9375 C 85.082031 34.316406 85.066406 34.703125 85.015625 35.09375 C 84.835938 36.074219 84.691406 36.667969 84.578125 36.875 C 84.105469 38.164062 83.441406 39.28125 82.582031 40.226562 C 82.203125 40.742188 81.378906 41.359375 80.109375 42.085938 C 78.59375 42.667969 77.410156 42.964844 76.558594 42.980469 " fill-opacity="1" fill-rule="nonzero"/><g clip-path="url(#c48aff631a)"><path fill="#ffde59" d="M 136.542969 28.222656 C 139.296875 31.375 143.195312 33.011719 148.210938 32.996094 C 149.851562 32.992188 151.566406 32.675781 153.339844 32.203125 L 153.347656 32.203125 C 154.136719 31.992188 154.898438 31.777344 155.609375 31.527344 L 155.789062 31.464844 L 155.964844 31.402344 C 158.429688 30.539062 160.816406 29.707031 163.175781 28.992188 C 164.972656 28.445312 166.871094 28.03125 168.84375 27.636719 L 168.820312 27.636719 L 168.84375 27.636719 C 169.128906 27.578125 169.34375 27.476562 169.472656 27.347656 C 169.519531 27.296875 169.535156 27.226562 169.515625 27.164062 C 169.125 25.84375 167.429688 24.417969 164.511719 22.945312 C 162.410156 21.882812 159.851562 21.3125 156.894531 21.242188 C 153.703125 21.164062 150.523438 21.683594 147.347656 22.644531 C 146.03125 23.042969 144.792969 23.453125 143.652344 23.929688 L 143.632812 23.9375 L 136.644531 27.875 C 136.554688 27.921875 136.523438 28.039062 136.574219 28.128906 C 136.625 28.21875 136.738281 28.25 136.828125 28.199219 L 143.816406 24.261719 L 143.796875 24.273438 C 144.917969 23.804688 146.144531 23.398438 147.453125 23 C 150.601562 22.050781 153.738281 21.539062 156.882812 21.613281 C 159.804688 21.683594 162.300781 22.246094 164.34375 23.277344 C 167.269531 24.753906 168.820312 26.121094 169.160156 27.269531 L 169.203125 27.085938 C 169.152344 27.140625 169.019531 27.21875 168.769531 27.269531 L 168.792969 27.265625 L 168.769531 27.269531 C 166.792969 27.664062 164.882812 28.085938 163.066406 28.632812 C 160.699219 29.351562 158.308594 30.1875 155.84375 31.050781 L 155.664062 31.113281 L 155.488281 31.175781 C 154.789062 31.421875 154.039062 31.628906 153.25 31.839844 L 153.242188 31.84375 C 151.484375 32.3125 149.808594 32.621094 148.210938 32.625 C 143.28125 32.636719 139.496094 31.035156 136.824219 27.976562 C 136.757812 27.898438 136.636719 27.890625 136.558594 27.957031 C 136.484375 28.027344 136.476562 28.144531 136.542969 28.222656 Z M 136.542969 28.222656 " fill-opacity="1" fill-rule="nonzero"/><path fill="#ffde59" d="M 149.128906 32.613281 C 148.820312 32.632812 148.515625 32.644531 148.210938 32.648438 C 143.355469 32.660156 139.605469 31.105469 136.9375 28.136719 L 136.953125 28.101562 L 136.960938 28.097656 L 143.808594 24.242188 L 143.820312 24.242188 L 143.816406 24.242188 C 144.929688 23.777344 146.148438 23.371094 147.449219 22.980469 C 149.773438 22.277344 152.09375 21.8125 154.417969 21.648438 C 155.238281 21.59375 156.0625 21.570312 156.886719 21.59375 C 159.804688 21.664062 162.308594 22.226562 164.351562 23.257812 C 167.164062 24.675781 168.707031 25.996094 169.132812 27.121094 L 169.128906 27.121094 L 169.140625 27.160156 L 169.128906 27.164062 L 169.136719 27.164062 C 169.0625 27.207031 168.949219 27.253906 168.789062 27.289062 L 168.773438 27.289062 C 166.796875 27.6875 164.886719 28.105469 163.074219 28.65625 C 160.703125 29.375 158.316406 30.207031 155.847656 31.074219 L 155.671875 31.132812 L 155.496094 31.195312 C 154.800781 31.441406 154.054688 31.648438 153.269531 31.855469 L 153.257812 31.859375 L 153.257812 31.863281 L 153.25 31.863281 C 151.820312 32.242188 150.453125 32.519531 149.128906 32.613281 Z M 149.128906 32.613281 " fill-opacity="1" fill-rule="nonzero"/></g></g></g></g></svg>