<svg xmlns="http://www.w3.org/2000/svg" xmlns:xlink="http://www.w3.org/1999/xlink" width="227" zoomAndPan="magnify" viewBox="0 0 170.25 56.999997" height="76" preserveAspectRatio="xMidYMid meet" version="1.0"><defs><clipPath id="f07d9ac450"><path d="M 0 0.125 L 169.503906 0.125 L 169.503906 56.875 L 0 56.875 Z M 0 0.125 " clip-rule="nonzero"/></clipPath><clipPath id="55e3e6ed89"><path d="M 0 0.125 L 169.503906 0.125 L 169.503906 56.4375 L 0 56.4375 Z M 0 0.125 " clip-rule="nonzero"/></clipPath><clipPath id="3f2bc91f5f"><path d="M 26 29 L 40 29 L 40 56.4375 L 26 56.4375 Z M 26 29 " clip-rule="nonzero"/></clipPath><clipPath id="8a3cf4152a"><path d="M 93 0.125 L 120 0.125 L 120 20 L 93 20 Z M 93 0.125 " clip-rule="nonzero"/></clipPath><clipPath id="df56869226"><path d="M 163 24 L 169.5 24 L 169.5 42 L 163 42 Z M 163 24 " clip-rule="nonzero"/></clipPath><clipPath id="dc9b520ecd"><path d="M 0 21 L 33 21 L 33 34 L 0 34 Z M 0 21 " clip-rule="nonzero"/></clipPath><clipPath id="2c4af22781"><rect x="0" width="170" y="0" height="57"/></clipPath><clipPath id="53ffb40039"><path d="M 0 0.125 L 169.503906 0.125 L 169.503906 56.683594 L 0 56.683594 Z M 0 0.125 " clip-rule="nonzero"/></clipPath><clipPath id="237607e188"><path d="M 26 30 L 40 30 L 40 56.683594 L 26 56.683594 Z M 26 30 " clip-rule="nonzero"/></clipPath><clipPath id="e9a5cbad0e"><path d="M 93 0.125 L 120 0.125 L 120 20 L 93 20 Z M 93 0.125 " clip-rule="nonzero"/></clipPath><clipPath id="78bbf023e6"><path d="M 163 24 L 169.5 24 L 169.5 42 L 163 42 Z M 163 24 " clip-rule="nonzero"/></clipPath><clipPath id="194c88216c"><path d="M 0 21 L 33 21 L 33 34 L 0 34 Z M 0 21 " clip-rule="nonzero"/></clipPath><clipPath id="c442feb491"><rect x="0" width="170" y="0" height="57"/></clipPath><clipPath id="3070c7d657"><rect x="0" width="170" y="0" height="57"/></clipPath></defs><g clip-path="url(#f07d9ac450)"><g transform="matrix(1, 0, 0, 1, 0, -0.000000000000000985)"><g clip-path="url(#3070c7d657)"><g clip-path="url(#55e3e6ed89)"><g transform="matrix(1, 0, 0, 1, 0, -0.000000000000000985)"><g clip-path="url(#2c4af22781)"><path fill="#ffde59" d="M 56.546875 44.949219 L 56.761719 44.964844 C 57.335938 45 57.949219 45.015625 58.609375 45.011719 L 65.644531 44.726562 C 66.042969 44.730469 67.496094 44.949219 70.011719 45.386719 C 70.277344 45.378906 70.398438 45.261719 70.371094 45.039062 C 67.199219 39.714844 65.320312 36.738281 64.734375 36.105469 C 63.433594 34.515625 62.074219 33.167969 60.664062 32.0625 C 58.460938 30.378906 56.414062 29.199219 54.527344 28.53125 C 52.632812 27.761719 50.507812 27.269531 48.148438 27.050781 C 46.699219 26.949219 45.394531 26.976562 44.234375 27.128906 C 43.65625 27.207031 43.113281 27.316406 42.605469 27.457031 C 42.101562 27.597656 41.628906 27.773438 41.195312 27.976562 L 40.574219 28.308594 L 40.792969 30.945312 L 41.214844 32.816406 C 41.539062 34.019531 41.953125 35.136719 42.453125 36.167969 C 42.957031 37.195312 43.542969 38.136719 44.21875 38.992188 L 45.300781 40.207031 C 46.066406 40.972656 46.917969 41.652344 47.859375 42.246094 C 49.300781 43.117188 50.746094 43.753906 52.195312 44.148438 C 53.84375 44.601562 55.296875 44.867188 56.546875 44.949219 " fill-opacity="1" fill-rule="nonzero"/><g clip-path="url(#3f2bc91f5f)"><path fill="#ffde59" d="M 31.488281 56.5625 L 31.511719 56.566406 C 31.582031 56.566406 31.648438 56.550781 31.714844 56.515625 C 32.652344 55.21875 33.5 53.96875 34.261719 52.765625 C 35.019531 51.566406 35.691406 50.414062 36.277344 49.308594 L 37.085938 47.691406 C 37.582031 46.632812 37.988281 45.628906 38.308594 44.667969 C 38.625 43.710938 38.855469 42.800781 38.996094 41.9375 C 39.164062 40.964844 39.246094 39.957031 39.246094 38.910156 L 39.230469 38.121094 C 39.207031 37.589844 39.164062 37.050781 39.101562 36.5 C 39.039062 35.949219 38.957031 35.390625 38.855469 34.824219 C 38.539062 33.496094 38.339844 32.753906 38.246094 32.59375 C 38.09375 32.164062 37.929688 31.78125 37.753906 31.441406 C 37.402344 30.761719 37.003906 30.257812 36.554688 29.933594 L 33.9375 31.441406 L 32.472656 32.480469 C 31.550781 33.195312 30.730469 33.953125 30.015625 34.75 C 29.300781 35.546875 28.6875 36.390625 28.175781 37.273438 L 27.488281 38.628906 L 26.957031 40.046875 L 26.582031 41.527344 L 26.359375 43.074219 C 26.320312 43.597656 26.308594 44.117188 26.320312 44.632812 C 26.335938 45.144531 26.375 45.652344 26.441406 46.152344 C 26.507812 46.65625 26.597656 47.148438 26.71875 47.640625 L 26.917969 48.367188 C 27.273438 49.566406 27.949219 51.09375 28.945312 52.953125 C 29.347656 53.703125 29.953125 54.714844 30.765625 55.988281 C 30.957031 56.296875 31.195312 56.488281 31.488281 56.5625 " fill-opacity="1" fill-rule="nonzero"/></g><path fill="#ffde59" d="M 39.789062 26.1875 L 41.601562 26.113281 L 42.5 26.003906 C 43.113281 25.894531 43.757812 25.707031 44.429688 25.4375 C 45.101562 25.171875 45.800781 24.824219 46.535156 24.398438 C 47.996094 23.550781 49.578125 22.386719 51.277344 20.910156 C 52.355469 19.953125 53.664062 18.359375 55.199219 16.128906 L 58.152344 11.433594 C 58.238281 11.21875 58.132812 11.117188 57.828125 11.121094 C 54.878906 11.40625 52.257812 11.925781 49.960938 12.679688 C 49.140625 12.980469 48.3125 13.359375 47.476562 13.824219 C 46.855469 14.125 45.796875 14.835938 44.308594 15.953125 C 42.550781 17.535156 41.320312 19.085938 40.617188 20.597656 C 39.46875 23.183594 39.195312 25.046875 39.789062 26.1875 " fill-opacity="1" fill-rule="nonzero"/><path fill="#ffde59" d="M 38.808594 28.910156 L 38.253906 28.503906 C 32.535156 25.179688 31.488281 19.875 35.117188 12.59375 C 38.378906 7.515625 44.050781 4.839844 52.136719 4.5625 C 56.878906 4.382812 62.351562 5.546875 68.558594 8.058594 C 73.15625 10.011719 76.804688 11.699219 79.503906 13.113281 C 94.8125 22.164062 103.5625 27.117188 105.746094 27.976562 C 112.089844 30.914062 117.804688 32.816406 122.894531 33.6875 C 131.710938 35.0625 139.992188 34.933594 147.726562 33.292969 C 154.710938 31.777344 161.460938 28.761719 167.984375 24.238281 C 165.328125 25.660156 161.121094 27.386719 155.359375 29.421875 C 152.757812 30.332031 149.3125 31.171875 145.023438 31.933594 C 142.382812 32.433594 138.917969 32.707031 134.636719 32.761719 C 129.746094 32.667969 125.601562 32.3125 122.203125 31.699219 C 117.222656 30.671875 111.816406 28.777344 105.984375 26.019531 C 103.441406 24.914062 95.058594 20.136719 80.839844 11.695312 C 77.601562 10.015625 73.757812 8.230469 69.308594 6.335938 C 62.96875 3.738281 57.132812 2.523438 51.800781 2.6875 C 42.261719 3.316406 35.976562 6.636719 32.941406 12.648438 C 29.621094 20.859375 31.578125 26.277344 38.808594 28.910156 " fill-opacity="1" fill-rule="nonzero"/><path fill="#ffde59" d="M 130.878906 40.519531 L 131.03125 40.53125 C 134.296875 40.777344 137.730469 40.675781 141.335938 40.234375 C 144.59375 39.6875 147.851562 38.9375 151.101562 37.980469 C 158.390625 35.679688 163.707031 32.96875 167.042969 29.84375 L 160.019531 32.996094 C 158.238281 33.742188 156.363281 34.4375 154.394531 35.078125 C 148.863281 36.824219 144.25 37.941406 140.5625 38.433594 C 137.363281 38.828125 133.535156 38.921875 129.085938 38.714844 C 127.875 38.644531 126.484375 38.503906 124.921875 38.300781 L 114.714844 36.921875 C 114.621094 36.910156 114.871094 36.96875 115.472656 37.101562 C 116.980469 37.621094 118.335938 38.046875 119.53125 38.382812 C 120.683594 38.707031 122.015625 39.042969 123.527344 39.386719 C 126.285156 40.019531 128.738281 40.398438 130.878906 40.519531 " fill-opacity="1" fill-rule="nonzero"/><path fill="#ffde59" d="M 138.832031 26.324219 L 139.058594 26.339844 C 143.414062 26.621094 147.460938 26.246094 151.203125 25.222656 C 156.089844 23.96875 159.421875 22.46875 161.195312 20.714844 C 156.976562 22.527344 152.074219 23.742188 146.480469 24.359375 C 141.988281 24.8125 137.40625 24.5625 132.742188 23.601562 C 129.523438 22.96875 126.328125 21.949219 123.160156 20.535156 C 121.652344 19.84375 120.296875 19.152344 119.089844 18.453125 C 112.210938 14.015625 107.425781 11.125 104.726562 9.785156 C 101.910156 8.351562 99.402344 7.566406 97.199219 7.433594 C 96.542969 7.386719 95.796875 7.371094 94.964844 7.378906 C 97.660156 7.878906 100.226562 8.816406 102.664062 10.195312 C 103.460938 10.613281 104.566406 11.277344 105.980469 12.183594 C 113.679688 17.253906 117.453125 19.71875 117.300781 19.570312 C 118.71875 20.429688 120.316406 21.269531 122.09375 22.101562 C 127.132812 24.429688 132.714844 25.835938 138.832031 26.324219 " fill-opacity="1" fill-rule="nonzero"/><g clip-path="url(#8a3cf4152a)"><path fill="#ffde59" d="M 119.546875 19.1875 L 118.390625 18.257812 C 116.914062 17.035156 115.691406 15.855469 114.71875 14.722656 C 114.234375 14.15625 113.8125 13.605469 113.453125 13.0625 L 111.894531 10.308594 C 110.160156 7.164062 109 3.589844 108.40625 -0.40625 C 107.976562 0.382812 107.621094 1.167969 107.339844 1.949219 C 107.085938 2.535156 106.851562 3.507812 106.636719 4.859375 C 106.519531 6.328125 106.722656 7.621094 107.246094 8.742188 C 104.023438 7.828125 102.003906 7.292969 101.191406 7.148438 C 99.910156 6.867188 98.886719 6.699219 98.125 6.644531 C 96.921875 6.523438 95.792969 6.570312 94.734375 6.789062 C 94.179688 6.929688 93.894531 7.203125 93.878906 7.613281 C 93.980469 7.78125 94.324219 7.984375 94.90625 8.214844 C 99.652344 9.773438 104.144531 11.523438 108.378906 13.460938 C 110.105469 14.246094 111.628906 14.972656 112.949219 15.644531 C 114.265625 16.316406 115.382812 16.929688 116.292969 17.488281 L 119.546875 19.1875 " fill-opacity="1" fill-rule="nonzero"/></g><path fill="#ffde59" d="M 123.382812 40.128906 L 123.550781 40.136719 C 123.996094 40.164062 124.429688 40.167969 124.859375 40.148438 L 125.460938 40.101562 C 125.847656 40.0625 126.214844 40.015625 126.558594 39.957031 C 127.589844 39.773438 128.410156 39.488281 129.023438 39.097656 L 133.382812 39.773438 C 132.75 39.675781 131.742188 39.4375 130.363281 39.0625 C 125.074219 37.386719 121.078125 36.191406 118.371094 35.484375 C 116.792969 35.066406 115.261719 34.800781 113.773438 34.683594 C 113.246094 34.636719 112.546875 34.632812 111.679688 34.671875 C 111.457031 34.660156 110.929688 34.738281 110.101562 34.90625 C 108.894531 35.1875 108.367188 35.460938 108.527344 35.726562 C 108.582031 35.761719 108.675781 35.792969 108.804688 35.828125 C 109.417969 35.960938 110.277344 36.171875 111.378906 36.464844 C 111.886719 36.601562 112.519531 36.796875 113.269531 37.046875 C 114.058594 37.304688 115.703125 37.925781 118.214844 38.902344 C 119.03125 39.195312 119.664062 39.402344 120.109375 39.527344 C 121.242188 39.855469 122.335938 40.054688 123.382812 40.128906 " fill-opacity="1" fill-rule="nonzero"/><path fill="#ffde59" d="M 124.574219 40.429688 L 124.667969 40.4375 C 125.992188 40.515625 127.0625 40.53125 127.878906 40.476562 C 128.34375 40.453125 128.796875 40.417969 129.238281 40.367188 C 129.472656 40.359375 130.117188 40.257812 131.175781 40.058594 L 118.78125 36.703125 C 117.785156 36.457031 116.539062 36.183594 115.042969 35.890625 C 114.464844 35.765625 113.628906 35.652344 112.53125 35.550781 C 111.722656 35.511719 111.097656 35.503906 110.652344 35.535156 C 110.09375 35.558594 109.488281 35.605469 108.835938 35.671875 C 110.5 36.457031 112.050781 37.136719 113.488281 37.710938 C 115.695312 38.582031 117.546875 39.195312 119.050781 39.550781 C 120.910156 40.007812 122.75 40.300781 124.574219 40.429688 " fill-opacity="1" fill-rule="nonzero"/><path fill="#ffde59" d="M 157.0625 25.089844 L 157.765625 25.117188 L 158.4375 25.097656 C 158.871094 25.070312 159.285156 25.011719 159.679688 24.925781 C 160.074219 24.835938 160.445312 24.714844 160.796875 24.566406 C 161.148438 24.414062 161.480469 24.230469 161.789062 24.019531 L 162.234375 23.679688 L 166.222656 21.90625 C 165.246094 21.726562 164.257812 21.378906 163.257812 20.867188 C 162.796875 20.652344 161.476562 19.847656 159.296875 18.460938 C 158.441406 18 157.628906 17.628906 156.859375 17.34375 C 156.257812 17.097656 155.183594 16.828125 153.628906 16.535156 C 152.511719 16.363281 151.433594 16.265625 150.394531 16.242188 C 148.160156 16.191406 146.039062 16.46875 144.023438 17.070312 C 143.351562 17.273438 142.695312 17.511719 142.046875 17.785156 L 141.160156 18.207031 C 140.386719 18.570312 140.03125 18.875 140.097656 19.128906 C 141.871094 19.332031 143.40625 19.671875 144.707031 20.144531 C 145.472656 20.398438 146.25 20.726562 147.039062 21.128906 C 147.566406 21.363281 149.265625 22.25 152.148438 23.785156 C 152.472656 23.9375 152.804688 24.082031 153.136719 24.210938 C 154.335938 24.6875 155.644531 24.980469 157.0625 25.089844 " fill-opacity="1" fill-rule="nonzero"/><g clip-path="url(#df56869226)"><path fill="#ffde59" d="M 165.011719 41.101562 L 165.027344 41.101562 C 165.167969 41.136719 165.34375 40.910156 165.558594 40.417969 L 168.160156 34.390625 C 168.640625 33.21875 169.023438 31.964844 169.308594 30.628906 C 169.414062 29.953125 169.46875 29.550781 169.464844 29.425781 C 169.484375 29.164062 169.496094 28.910156 169.496094 28.65625 C 169.496094 28.15625 169.457031 27.671875 169.375 27.203125 C 169.257812 26.632812 169.113281 26.144531 168.941406 25.738281 L 168.804688 25.449219 C 168.710938 25.265625 168.609375 25.101562 168.5 24.960938 C 168.390625 24.820312 168.277344 24.699219 168.15625 24.597656 L 166.589844 25.648438 C 166.128906 26.0625 165.714844 26.496094 165.347656 26.949219 L 164.828125 27.640625 L 164.378906 28.355469 C 164.101562 28.84375 163.871094 29.347656 163.683594 29.867188 L 163.433594 30.664062 L 163.257812 31.488281 C 163.15625 32.230469 163.109375 32.617188 163.113281 32.648438 C 163.097656 32.867188 163.089844 33.089844 163.09375 33.328125 C 163.09375 33.5625 163.109375 33.808594 163.128906 34.066406 C 163.128906 34.183594 163.183594 34.589844 163.292969 35.292969 L 163.375 35.734375 L 164.171875 38.351562 L 164.707031 40.695312 C 164.761719 40.925781 164.863281 41.058594 165.011719 41.101562 " fill-opacity="1" fill-rule="nonzero"/></g><path fill="#ffde59" d="M 87.28125 23.882812 L 87.5625 23.902344 C 88.289062 23.941406 88.910156 23.929688 89.421875 23.863281 L 90.242188 23.710938 C 90.769531 23.59375 91.257812 23.445312 91.707031 23.261719 C 93.058594 22.71875 94.0625 21.882812 94.71875 20.761719 L 91.910156 19.78125 C 89.820312 20.59375 87.996094 21.105469 86.433594 21.316406 L 85.671875 21.394531 C 85.179688 21.429688 84.71875 21.433594 84.285156 21.402344 C 83.753906 21.363281 83.359375 21.292969 83.105469 21.199219 C 82.929688 21.121094 82.894531 21.023438 83.003906 20.902344 C 83.054688 20.832031 83.484375 20.535156 84.300781 20.003906 C 85.378906 19.324219 86.628906 18.714844 88.046875 18.175781 C 88.28125 18.035156 88.441406 17.925781 88.527344 17.847656 C 88.863281 17.632812 88.371094 17.480469 87.050781 17.394531 C 86.160156 17.367188 85.488281 17.410156 85.046875 17.53125 C 84.304688 17.699219 83.550781 18 82.785156 18.429688 C 82.683594 18.472656 82.273438 18.734375 81.554688 19.210938 L 81.171875 19.527344 L 77.960938 22.359375 C 77.859375 22.445312 77.796875 22.546875 77.777344 22.664062 C 77.792969 22.769531 77.972656 22.839844 78.316406 22.875 C 79.898438 23.003906 81.121094 23.113281 81.988281 23.210938 L 86.046875 23.761719 C 86.386719 23.8125 86.796875 23.851562 87.28125 23.882812 " fill-opacity="1" fill-rule="nonzero"/><path fill="#ffde59" d="M 92.941406 43.171875 L 93.433594 43.195312 C 95.773438 43.214844 97.6875 42.296875 99.183594 40.441406 C 99.917969 39.566406 100.367188 38.621094 100.527344 37.613281 C 100.664062 36.476562 100.5625 35.53125 100.226562 34.777344 C 99.988281 34.269531 99.628906 33.832031 99.148438 33.46875 C 98.734375 33.101562 98.0625 32.816406 97.136719 32.621094 C 95.652344 32.359375 94.332031 32.675781 93.171875 33.570312 C 92.367188 34.230469 91.917969 34.90625 91.820312 35.59375 C 91.769531 35.9375 91.8125 36.285156 91.9375 36.632812 C 92.066406 36.984375 92.28125 37.339844 92.585938 37.695312 C 92.679688 37.773438 92.773438 37.839844 92.867188 37.902344 C 93.742188 38.488281 94.632812 38.367188 95.542969 37.527344 C 95.941406 37.019531 96.015625 36.550781 95.765625 36.117188 C 95.691406 36.023438 95.554688 35.972656 95.355469 35.957031 C 94.570312 36.078125 94.109375 36.121094 93.964844 36.09375 C 93.773438 36.027344 93.683594 35.863281 93.691406 35.59375 L 93.734375 35.371094 C 93.824219 35.152344 93.941406 34.957031 94.082031 34.785156 C 94.21875 34.617188 94.382812 34.46875 94.574219 34.351562 C 94.949219 34.109375 95.421875 33.96875 95.988281 33.929688 L 96.433594 33.917969 C 97.007812 34.027344 97.496094 34.183594 97.90625 34.386719 C 98.316406 34.589844 98.648438 34.839844 98.894531 35.132812 C 99.394531 35.726562 99.570312 36.503906 99.421875 37.464844 L 99.253906 38.222656 L 99 38.6875 C 98.816406 38.992188 98.601562 39.277344 98.355469 39.542969 C 97.859375 40.078125 97.234375 40.542969 96.484375 40.9375 C 95.003906 41.734375 93.460938 41.941406 91.863281 41.5625 C 91.101562 41.359375 90.457031 41.109375 89.925781 40.804688 C 89.53125 40.585938 89.167969 40.335938 88.835938 40.054688 C 88.175781 39.488281 87.648438 38.796875 87.253906 37.972656 C 86.820312 37.113281 86.597656 36.203125 86.585938 35.234375 C 86.570312 34.765625 86.597656 34.304688 86.667969 33.84375 L 86.800781 33.15625 C 86.914062 32.699219 87.070312 32.246094 87.269531 31.796875 C 88.253906 29.546875 90.070312 27.734375 92.722656 26.367188 C 95.640625 24.832031 98.367188 24.148438 100.894531 24.3125 L 93.4375 20.683594 C 89.0625 25.253906 86.722656 27.894531 86.425781 28.605469 C 85.234375 30.40625 84.570312 32.25 84.429688 34.128906 C 84.414062 34.511719 84.433594 34.894531 84.484375 35.285156 C 84.664062 36.265625 84.808594 36.859375 84.921875 37.066406 C 85.394531 38.355469 86.058594 39.472656 86.917969 40.417969 C 87.296875 40.933594 88.121094 41.550781 89.386719 42.277344 C 90.902344 42.859375 92.085938 43.15625 92.941406 43.171875 " fill-opacity="1" fill-rule="nonzero"/><g clip-path="url(#dc9b520ecd)"><path fill="#ffde59" d="M 32.957031 28.414062 C 30.203125 31.566406 26.304688 33.203125 21.289062 33.191406 C 19.644531 33.1875 17.933594 32.867188 16.160156 32.394531 L 16.152344 32.394531 C 15.363281 32.183594 14.601562 31.96875 13.886719 31.722656 L 13.535156 31.597656 C 11.066406 30.734375 8.679688 29.898438 6.324219 29.183594 C 4.527344 28.640625 2.628906 28.222656 0.65625 27.828125 L 0.679688 27.832031 L 0.65625 27.828125 C 0.367188 27.769531 0.152344 27.667969 0.0273438 27.539062 C -0.0195312 27.488281 -0.0351562 27.421875 -0.0195312 27.355469 C 0.371094 26.039062 2.070312 24.609375 4.988281 23.136719 C 7.089844 22.074219 9.644531 21.503906 12.605469 21.433594 C 15.796875 21.355469 18.976562 21.875 22.152344 22.835938 C 23.46875 23.234375 24.707031 23.644531 25.84375 24.121094 L 25.863281 24.128906 L 32.855469 28.066406 C 32.945312 28.117188 32.976562 28.230469 32.925781 28.320312 C 32.875 28.410156 32.761719 28.441406 32.671875 28.390625 L 25.679688 24.457031 L 25.699219 24.464844 C 24.578125 23.996094 23.355469 23.589844 22.042969 23.191406 C 18.898438 22.242188 15.757812 21.730469 12.613281 21.804688 C 9.695312 21.875 7.199219 22.441406 5.15625 23.46875 C 2.226562 24.945312 0.679688 26.316406 0.339844 27.460938 L 0.292969 27.277344 C 0.347656 27.332031 0.480469 27.410156 0.726562 27.460938 L 0.703125 27.457031 L 0.726562 27.460938 C 2.703125 27.859375 4.617188 28.277344 6.429688 28.828125 C 8.800781 29.546875 11.191406 30.378906 13.65625 31.246094 L 13.832031 31.304688 L 14.011719 31.367188 C 14.710938 31.613281 15.457031 31.824219 16.25 32.03125 L 16.253906 32.035156 C 18.015625 32.503906 19.691406 32.8125 21.289062 32.816406 C 26.21875 32.832031 30.003906 31.226562 32.675781 28.167969 C 32.742188 28.089844 32.859375 28.082031 32.9375 28.148438 C 33.015625 28.21875 33.023438 28.335938 32.957031 28.414062 Z M 32.957031 28.414062 " fill-opacity="1" fill-rule="nonzero"/></g><path fill="#ffde59" d="M 20.367188 32.804688 C 20.679688 32.828125 20.984375 32.839844 21.289062 32.839844 C 26.144531 32.851562 29.894531 31.296875 32.5625 28.328125 L 32.546875 28.292969 L 32.539062 28.292969 L 25.691406 24.4375 L 25.679688 24.433594 C 24.566406 23.96875 23.351562 23.566406 22.050781 23.171875 C 19.726562 22.46875 17.402344 22.007812 15.082031 21.84375 C 14.261719 21.785156 13.4375 21.765625 12.613281 21.785156 C 9.691406 21.855469 7.191406 22.417969 5.148438 23.449219 C 2.335938 24.867188 0.789062 26.1875 0.367188 27.3125 L 0.371094 27.3125 L 0.359375 27.355469 L 0.371094 27.355469 L 0.363281 27.355469 C 0.4375 27.398438 0.546875 27.445312 0.707031 27.480469 L 0.722656 27.480469 L 0.722656 27.484375 C 2.699219 27.878906 4.609375 28.296875 6.425781 28.847656 C 8.796875 29.566406 11.179688 30.398438 13.648438 31.265625 L 13.828125 31.328125 L 14.003906 31.390625 C 14.699219 31.632812 15.445312 31.839844 16.226562 32.050781 L 16.238281 32.050781 L 16.242188 32.054688 L 16.25 32.054688 C 17.675781 32.4375 19.046875 32.710938 20.367188 32.804688 Z M 20.367188 32.804688 " fill-opacity="1" fill-rule="nonzero"/></g></g></g><g clip-path="url(#53ffb40039)"><g transform="matrix(1, 0, 0, 1, 0, -0.000000000000000985)"><g clip-path="url(#c442feb491)"><path fill="#ffde59" d="M 56.546875 45.195312 L 56.761719 45.210938 C 57.335938 45.246094 57.949219 45.261719 58.609375 45.257812 L 65.644531 44.972656 C 66.042969 44.976562 67.496094 45.195312 70.011719 45.636719 C 70.277344 45.625 70.398438 45.511719 70.371094 45.285156 C 67.199219 39.960938 65.320312 36.984375 64.734375 36.351562 C 63.433594 34.761719 62.074219 33.414062 60.664062 32.308594 C 58.460938 30.625 56.414062 29.445312 54.527344 28.777344 C 52.632812 28.007812 50.507812 27.515625 48.148438 27.300781 C 46.699219 27.199219 45.394531 27.222656 44.234375 27.378906 C 43.65625 27.453125 43.113281 27.5625 42.605469 27.707031 C 42.101562 27.847656 41.628906 28.019531 41.195312 28.226562 L 40.574219 28.558594 L 40.792969 31.191406 L 41.214844 33.0625 C 41.539062 34.269531 41.953125 35.382812 42.453125 36.414062 C 42.957031 37.441406 43.542969 38.386719 44.21875 39.238281 L 45.300781 40.453125 C 46.066406 41.222656 46.917969 41.898438 47.859375 42.492188 C 49.300781 43.363281 50.746094 44 52.195312 44.398438 C 53.84375 44.847656 55.296875 45.117188 56.546875 45.195312 " fill-opacity="1" fill-rule="nonzero"/><g clip-path="url(#237607e188)"><path fill="#ffde59" d="M 31.488281 56.8125 L 31.511719 56.8125 C 31.582031 56.8125 31.648438 56.796875 31.714844 56.761719 C 32.652344 55.464844 33.5 54.214844 34.261719 53.015625 C 35.019531 51.8125 35.691406 50.660156 36.277344 49.558594 L 37.085938 47.9375 C 37.582031 46.882812 37.988281 45.875 38.308594 44.914062 C 38.625 43.957031 38.855469 43.046875 38.996094 42.183594 C 39.164062 41.210938 39.246094 40.203125 39.246094 39.160156 L 39.230469 38.367188 C 39.207031 37.835938 39.164062 37.296875 39.101562 36.746094 C 39.039062 36.199219 38.957031 35.640625 38.855469 35.070312 C 38.539062 33.742188 38.339844 33 38.246094 32.839844 C 38.09375 32.414062 37.929688 32.027344 37.753906 31.6875 C 37.402344 31.007812 37.003906 30.503906 36.554688 30.179688 L 33.9375 31.6875 L 32.472656 32.726562 C 31.550781 33.441406 30.730469 34.199219 30.015625 34.996094 C 29.300781 35.796875 28.6875 36.636719 28.175781 37.519531 L 27.488281 38.875 L 26.957031 40.292969 L 26.582031 41.777344 L 26.359375 43.320312 C 26.320312 43.847656 26.308594 44.367188 26.320312 44.878906 C 26.335938 45.390625 26.375 45.898438 26.441406 46.402344 C 26.507812 46.902344 26.597656 47.398438 26.71875 47.886719 L 26.917969 48.617188 C 27.273438 49.8125 27.949219 51.34375 28.945312 53.199219 C 29.347656 53.949219 29.953125 54.960938 30.765625 56.234375 C 30.957031 56.546875 31.195312 56.738281 31.488281 56.8125 " fill-opacity="1" fill-rule="nonzero"/></g><path fill="#ffde59" d="M 39.789062 26.433594 L 41.601562 26.359375 L 42.5 26.253906 C 43.113281 26.140625 43.757812 25.953125 44.429688 25.683594 C 45.101562 25.417969 45.800781 25.070312 46.535156 24.648438 C 47.996094 23.796875 49.578125 22.636719 51.277344 21.160156 C 52.355469 20.199219 53.664062 18.605469 55.199219 16.375 L 58.152344 11.679688 C 58.238281 11.46875 58.132812 11.363281 57.828125 11.367188 C 54.878906 11.652344 52.257812 12.171875 49.960938 12.929688 C 49.140625 13.226562 48.3125 13.605469 47.476562 14.070312 C 46.855469 14.371094 45.796875 15.082031 44.308594 16.199219 C 42.550781 17.785156 41.320312 19.332031 40.617188 20.84375 C 39.46875 23.429688 39.195312 25.292969 39.789062 26.433594 " fill-opacity="1" fill-rule="nonzero"/><path fill="#ffde59" d="M 38.808594 29.160156 L 38.253906 28.75 C 32.535156 25.425781 31.488281 20.125 35.117188 12.84375 C 38.378906 7.761719 44.050781 5.085938 52.136719 4.8125 C 56.878906 4.628906 62.351562 5.792969 68.558594 8.308594 C 73.15625 10.261719 76.804688 11.945312 79.503906 13.363281 C 94.8125 22.410156 103.5625 27.363281 105.746094 28.222656 C 112.089844 31.160156 117.804688 33.066406 122.894531 33.933594 C 131.710938 35.3125 139.992188 35.179688 147.726562 33.542969 C 154.710938 32.027344 161.460938 29.007812 167.984375 24.484375 C 165.328125 25.90625 161.121094 27.636719 155.359375 29.667969 C 152.757812 30.582031 149.3125 31.417969 145.023438 32.183594 C 142.382812 32.679688 138.917969 32.953125 134.636719 33.011719 C 129.746094 32.914062 125.601562 32.558594 122.203125 31.949219 C 117.222656 30.917969 111.816406 29.023438 105.984375 26.265625 C 103.441406 25.160156 95.058594 20.382812 80.839844 11.941406 C 77.601562 10.261719 73.757812 8.476562 69.308594 6.582031 C 62.96875 3.984375 57.132812 2.769531 51.800781 2.933594 C 42.261719 3.5625 35.976562 6.886719 32.941406 12.898438 C 29.621094 21.105469 31.578125 26.527344 38.808594 29.160156 " fill-opacity="1" fill-rule="nonzero"/><path fill="#ffde59" d="M 130.878906 40.765625 L 131.03125 40.777344 C 134.296875 41.023438 137.730469 40.925781 141.335938 40.480469 C 144.59375 39.933594 147.851562 39.183594 151.101562 38.226562 C 158.390625 35.925781 163.707031 33.214844 167.042969 30.089844 L 160.019531 33.246094 C 158.238281 33.988281 156.363281 34.683594 154.394531 35.328125 C 148.863281 37.070312 144.25 38.1875 140.5625 38.679688 C 137.363281 39.074219 133.535156 39.167969 129.085938 38.960938 C 127.875 38.890625 126.484375 38.75 124.921875 38.546875 L 114.714844 37.167969 C 114.621094 37.15625 114.871094 37.214844 115.472656 37.347656 C 116.980469 37.867188 118.335938 38.292969 119.53125 38.628906 C 120.683594 38.953125 122.015625 39.289062 123.527344 39.636719 C 126.285156 40.269531 128.738281 40.644531 130.878906 40.765625 " fill-opacity="1" fill-rule="nonzero"/><path fill="#ffde59" d="M 138.832031 26.574219 L 139.058594 26.589844 C 143.414062 26.867188 147.460938 26.492188 151.203125 25.46875 C 156.089844 24.214844 159.421875 22.714844 161.195312 20.964844 C 156.976562 22.777344 152.074219 23.992188 146.480469 24.605469 C 141.988281 25.0625 137.40625 24.808594 132.742188 23.847656 C 129.523438 23.214844 126.328125 22.195312 123.160156 20.78125 C 121.652344 20.09375 120.296875 19.398438 119.089844 18.703125 C 112.210938 14.261719 107.425781 11.371094 104.726562 10.03125 C 101.910156 8.597656 99.402344 7.816406 97.199219 7.679688 C 96.542969 7.636719 95.796875 7.617188 94.964844 7.628906 C 97.660156 8.125 100.226562 9.0625 102.664062 10.441406 C 103.460938 10.863281 104.566406 11.527344 105.980469 12.433594 C 113.679688 17.503906 117.453125 19.964844 117.300781 19.820312 C 118.71875 20.675781 120.316406 21.519531 122.09375 22.347656 C 127.132812 24.675781 132.714844 26.085938 138.832031 26.574219 " fill-opacity="1" fill-rule="nonzero"/><g clip-path="url(#e9a5cbad0e)"><path fill="#ffde59" d="M 119.546875 19.433594 L 118.390625 18.507812 C 116.914062 17.28125 115.691406 16.101562 114.71875 14.972656 C 114.234375 14.40625 113.8125 13.851562 113.453125 13.308594 L 111.894531 10.558594 C 110.160156 7.410156 109 3.839844 108.40625 -0.15625 C 107.976562 0.628906 107.621094 1.414062 107.339844 2.195312 C 107.085938 2.785156 106.851562 3.753906 106.636719 5.109375 C 106.519531 6.574219 106.722656 7.871094 107.246094 8.988281 C 104.023438 8.074219 102.003906 7.542969 101.191406 7.394531 C 99.910156 7.113281 98.886719 6.945312 98.125 6.890625 C 96.921875 6.769531 95.792969 6.820312 94.734375 7.035156 C 94.179688 7.175781 93.894531 7.449219 93.878906 7.859375 C 93.980469 8.03125 94.324219 8.230469 94.90625 8.460938 C 99.652344 10.019531 104.144531 11.769531 108.378906 13.707031 C 110.105469 14.492188 111.628906 15.222656 112.949219 15.890625 C 114.265625 16.5625 115.382812 17.179688 116.292969 17.738281 L 119.546875 19.433594 " fill-opacity="1" fill-rule="nonzero"/></g><path fill="#ffde59" d="M 123.382812 40.375 L 123.550781 40.386719 C 123.996094 40.410156 124.429688 40.414062 124.859375 40.394531 L 125.460938 40.347656 C 125.847656 40.3125 126.214844 40.261719 126.558594 40.203125 C 127.589844 40.023438 128.410156 39.738281 129.023438 39.34375 L 133.382812 40.019531 C 132.75 39.921875 131.742188 39.6875 130.363281 39.308594 C 125.074219 37.632812 121.078125 36.441406 118.371094 35.730469 C 116.792969 35.316406 115.261719 35.046875 113.773438 34.933594 C 113.246094 34.882812 112.546875 34.878906 111.679688 34.921875 C 111.457031 34.910156 110.929688 34.984375 110.101562 35.152344 C 108.894531 35.433594 108.367188 35.707031 108.527344 35.972656 C 108.582031 36.007812 108.675781 36.042969 108.804688 36.074219 C 109.417969 36.207031 110.277344 36.417969 111.378906 36.714844 C 111.886719 36.851562 112.519531 37.042969 113.269531 37.292969 C 114.058594 37.550781 115.703125 38.171875 118.214844 39.152344 C 119.03125 39.441406 119.664062 39.648438 120.109375 39.773438 C 121.242188 40.101562 122.335938 40.300781 123.382812 40.375 " fill-opacity="1" fill-rule="nonzero"/><path fill="#ffde59" d="M 124.574219 40.675781 L 124.667969 40.683594 C 125.992188 40.761719 127.0625 40.777344 127.878906 40.726562 C 128.34375 40.703125 128.796875 40.664062 129.238281 40.617188 C 129.472656 40.609375 130.117188 40.503906 131.175781 40.304688 L 118.78125 36.949219 C 117.785156 36.703125 116.539062 36.433594 115.042969 36.136719 C 114.464844 36.011719 113.628906 35.898438 112.53125 35.796875 C 111.722656 35.757812 111.097656 35.753906 110.652344 35.78125 C 110.09375 35.808594 109.488281 35.851562 108.835938 35.921875 C 110.5 36.707031 112.050781 37.382812 113.488281 37.957031 C 115.695312 38.832031 117.546875 39.441406 119.050781 39.796875 C 120.910156 40.253906 122.75 40.546875 124.574219 40.675781 " fill-opacity="1" fill-rule="nonzero"/><path fill="#ffde59" d="M 157.0625 25.335938 L 157.765625 25.363281 L 158.4375 25.347656 C 158.871094 25.320312 159.285156 25.261719 159.679688 25.171875 C 160.074219 25.082031 160.445312 24.960938 160.796875 24.8125 C 161.148438 24.660156 161.480469 24.480469 161.789062 24.269531 L 162.234375 23.925781 L 166.222656 22.152344 C 165.246094 21.972656 164.257812 21.625 163.257812 21.113281 C 162.796875 20.898438 161.476562 20.097656 159.296875 18.707031 C 158.441406 18.25 157.628906 17.875 156.859375 17.589844 C 156.257812 17.34375 155.183594 17.074219 153.628906 16.78125 C 152.511719 16.609375 151.433594 16.511719 150.394531 16.488281 C 148.160156 16.4375 146.039062 16.714844 144.023438 17.320312 C 143.351562 17.519531 142.695312 17.757812 142.046875 18.03125 L 141.160156 18.453125 C 140.386719 18.816406 140.03125 19.121094 140.097656 19.375 C 141.871094 19.582031 143.40625 19.921875 144.707031 20.394531 C 145.472656 20.648438 146.25 20.972656 147.039062 21.375 C 147.566406 21.609375 149.265625 22.496094 152.148438 24.03125 C 152.472656 24.1875 152.804688 24.328125 153.136719 24.457031 C 154.335938 24.933594 155.644531 25.226562 157.0625 25.335938 " fill-opacity="1" fill-rule="nonzero"/><g clip-path="url(#78bbf023e6)"><path fill="#ffde59" d="M 165.011719 41.347656 L 165.027344 41.347656 C 165.167969 41.386719 165.34375 41.15625 165.558594 40.667969 L 168.160156 34.636719 C 168.640625 33.464844 169.023438 32.210938 169.308594 30.875 C 169.414062 30.199219 169.46875 29.796875 169.464844 29.671875 C 169.484375 29.414062 169.496094 29.15625 169.496094 28.90625 C 169.496094 28.402344 169.457031 27.917969 169.375 27.453125 C 169.257812 26.878906 169.113281 26.390625 168.941406 25.984375 L 168.804688 25.695312 C 168.710938 25.511719 168.609375 25.351562 168.5 25.207031 C 168.390625 25.066406 168.277344 24.945312 168.15625 24.847656 L 166.589844 25.894531 C 166.128906 26.3125 165.714844 26.746094 165.347656 27.195312 L 164.828125 27.886719 L 164.378906 28.601562 C 164.101562 29.089844 163.871094 29.59375 163.683594 30.117188 L 163.433594 30.910156 L 163.257812 31.734375 C 163.15625 32.476562 163.109375 32.867188 163.113281 32.898438 C 163.097656 33.113281 163.089844 33.339844 163.09375 33.574219 C 163.09375 33.808594 163.109375 34.054688 163.128906 34.3125 C 163.128906 34.429688 163.183594 34.839844 163.292969 35.542969 L 163.375 35.980469 L 164.171875 38.597656 L 164.707031 40.941406 C 164.761719 41.171875 164.863281 41.308594 165.011719 41.347656 " fill-opacity="1" fill-rule="nonzero"/></g><path fill="#ffde59" d="M 87.28125 24.128906 L 87.5625 24.148438 C 88.289062 24.1875 88.910156 24.175781 89.421875 24.109375 L 90.242188 23.957031 C 90.769531 23.839844 91.257812 23.691406 91.707031 23.511719 C 93.058594 22.964844 94.0625 22.132812 94.71875 21.007812 L 91.910156 20.027344 C 89.820312 20.839844 87.996094 21.351562 86.433594 21.5625 L 85.671875 21.640625 C 85.179688 21.679688 84.71875 21.679688 84.285156 21.648438 C 83.753906 21.609375 83.359375 21.539062 83.105469 21.449219 C 82.929688 21.371094 82.894531 21.269531 83.003906 21.148438 C 83.054688 21.078125 83.484375 20.78125 84.300781 20.253906 C 85.378906 19.574219 86.628906 18.960938 88.046875 18.421875 C 88.28125 18.28125 88.441406 18.171875 88.527344 18.09375 C 88.863281 17.878906 88.371094 17.726562 87.050781 17.644531 C 86.160156 17.613281 85.488281 17.65625 85.046875 17.777344 C 84.304688 17.949219 83.550781 18.246094 82.785156 18.679688 C 82.683594 18.71875 82.273438 18.980469 81.554688 19.460938 L 81.171875 19.773438 L 77.960938 22.609375 C 77.859375 22.691406 77.796875 22.792969 77.777344 22.910156 C 77.792969 23.019531 77.972656 23.089844 78.316406 23.125 C 79.898438 23.25 81.121094 23.359375 81.988281 23.457031 L 86.046875 24.007812 C 86.386719 24.058594 86.796875 24.097656 87.28125 24.128906 " fill-opacity="1" fill-rule="nonzero"/><path fill="#ffde59" d="M 92.941406 43.421875 L 93.433594 43.441406 C 95.773438 43.460938 97.6875 42.546875 99.183594 40.691406 C 99.917969 39.8125 100.367188 38.867188 100.527344 37.859375 C 100.664062 36.722656 100.5625 35.78125 100.226562 35.027344 C 99.988281 34.515625 99.628906 34.078125 99.148438 33.714844 C 98.734375 33.347656 98.0625 33.066406 97.136719 32.867188 C 95.652344 32.605469 94.332031 32.921875 93.171875 33.816406 C 92.367188 34.476562 91.917969 35.152344 91.820312 35.839844 C 91.769531 36.183594 91.8125 36.53125 91.9375 36.882812 C 92.066406 37.230469 92.28125 37.585938 92.585938 37.941406 C 92.679688 38.019531 92.773438 38.089844 92.867188 38.148438 C 93.742188 38.738281 94.632812 38.613281 95.542969 37.773438 C 95.941406 37.265625 96.015625 36.796875 95.765625 36.363281 C 95.691406 36.273438 95.554688 36.21875 95.355469 36.207031 C 94.570312 36.324219 94.109375 36.371094 93.964844 36.339844 C 93.773438 36.277344 93.683594 36.109375 93.691406 35.84375 L 93.734375 35.621094 C 93.824219 35.398438 93.941406 35.203125 94.082031 35.03125 C 94.21875 34.863281 94.382812 34.71875 94.574219 34.597656 C 94.949219 34.355469 95.421875 34.214844 95.988281 34.175781 L 96.433594 34.164062 C 97.007812 34.273438 97.496094 34.429688 97.90625 34.632812 C 98.316406 34.835938 98.648438 35.085938 98.894531 35.382812 C 99.394531 35.972656 99.570312 36.75 99.421875 37.710938 L 99.253906 38.46875 L 99 38.9375 C 98.816406 39.238281 98.601562 39.523438 98.355469 39.792969 C 97.859375 40.328125 97.234375 40.792969 96.484375 41.1875 C 95.003906 41.980469 93.460938 42.1875 91.863281 41.808594 C 91.101562 41.609375 90.457031 41.355469 89.925781 41.050781 C 89.53125 40.835938 89.167969 40.582031 88.835938 40.300781 C 88.175781 39.734375 87.648438 39.042969 87.253906 38.222656 C 86.820312 37.363281 86.597656 36.449219 86.585938 35.480469 C 86.570312 35.015625 86.597656 34.550781 86.667969 34.089844 L 86.800781 33.402344 C 86.914062 32.949219 87.070312 32.496094 87.269531 32.046875 C 88.253906 29.792969 90.070312 27.984375 92.722656 26.613281 C 95.640625 25.078125 98.367188 24.394531 100.894531 24.558594 L 93.4375 20.929688 C 89.0625 25.503906 86.722656 28.140625 86.425781 28.851562 C 85.234375 30.65625 84.570312 32.496094 84.429688 34.375 C 84.414062 34.757812 84.433594 35.140625 84.484375 35.53125 C 84.664062 36.511719 84.808594 37.105469 84.921875 37.3125 C 85.394531 38.605469 86.058594 39.722656 86.917969 40.664062 C 87.296875 41.179688 88.121094 41.800781 89.386719 42.523438 C 90.902344 43.105469 92.085938 43.40625 92.941406 43.421875 " fill-opacity="1" fill-rule="nonzero"/><g clip-path="url(#194c88216c)"><path fill="#ffde59" d="M 32.957031 28.660156 C 30.203125 31.8125 26.304688 33.453125 21.289062 33.4375 C 19.644531 33.433594 17.933594 33.117188 16.160156 32.644531 L 16.152344 32.640625 C 15.363281 32.429688 14.601562 32.21875 13.886719 31.96875 L 13.535156 31.84375 C 11.066406 30.980469 8.679688 30.144531 6.324219 29.429688 C 4.527344 28.886719 2.628906 28.472656 0.65625 28.074219 L 0.679688 28.078125 L 0.65625 28.074219 C 0.367188 28.015625 0.152344 27.914062 0.0273438 27.785156 C -0.0195312 27.738281 -0.0351562 27.667969 -0.0195312 27.601562 C 0.371094 26.285156 2.070312 24.855469 4.988281 23.382812 C 7.089844 22.324219 9.644531 21.75 12.605469 21.679688 C 15.796875 21.601562 18.976562 22.125 22.152344 23.082031 C 23.46875 23.480469 24.707031 23.894531 25.84375 24.367188 L 25.863281 24.378906 L 32.855469 28.3125 C 32.945312 28.363281 32.976562 28.476562 32.925781 28.566406 C 32.875 28.65625 32.761719 28.6875 32.671875 28.636719 L 25.679688 24.703125 L 25.699219 24.710938 C 24.578125 24.246094 23.355469 23.835938 22.042969 23.441406 C 18.898438 22.492188 15.757812 21.976562 12.613281 22.054688 C 9.695312 22.125 7.199219 22.6875 5.15625 23.714844 C 2.226562 25.195312 0.679688 26.5625 0.339844 27.707031 L 0.292969 27.527344 C 0.347656 27.578125 0.480469 27.660156 0.726562 27.710938 L 0.703125 27.707031 L 0.726562 27.710938 C 2.703125 28.105469 4.617188 28.523438 6.429688 29.074219 C 8.800781 29.792969 11.191406 30.628906 13.65625 31.492188 L 13.832031 31.554688 L 14.011719 31.617188 C 14.710938 31.859375 15.457031 32.070312 16.25 32.28125 L 16.253906 32.28125 C 18.015625 32.75 19.691406 33.058594 21.289062 33.0625 C 26.21875 33.078125 30.003906 31.472656 32.675781 28.414062 C 32.742188 28.335938 32.859375 28.328125 32.9375 28.398438 C 33.015625 28.464844 33.023438 28.582031 32.957031 28.660156 Z M 32.957031 28.660156 " fill-opacity="1" fill-rule="nonzero"/></g><path fill="#ffde59" d="M 20.367188 33.050781 C 20.679688 33.074219 20.984375 33.085938 21.289062 33.085938 C 26.144531 33.097656 29.894531 31.542969 32.5625 28.574219 L 32.546875 28.539062 L 32.539062 28.539062 L 25.691406 24.683594 L 25.679688 24.679688 C 24.566406 24.21875 23.351562 23.8125 22.050781 23.417969 C 19.726562 22.71875 17.402344 22.253906 15.082031 22.089844 C 14.261719 22.03125 13.4375 22.011719 12.613281 22.03125 C 9.691406 22.101562 7.191406 22.664062 5.148438 23.695312 C 2.335938 25.113281 0.789062 26.433594 0.367188 27.558594 L 0.371094 27.5625 L 0.359375 27.601562 L 0.371094 27.601562 L 0.371094 27.605469 L 0.363281 27.605469 C 0.4375 27.648438 0.546875 27.695312 0.707031 27.726562 L 0.722656 27.726562 L 0.722656 27.730469 C 2.699219 28.128906 4.609375 28.542969 6.425781 29.09375 C 8.796875 29.8125 11.179688 30.648438 13.648438 31.511719 L 13.828125 31.574219 L 14.003906 31.636719 C 14.699219 31.878906 15.445312 32.089844 16.226562 32.296875 L 16.238281 32.296875 L 16.242188 32.300781 L 16.25 32.304688 C 17.675781 32.683594 19.046875 32.957031 20.367188 33.050781 Z M 20.367188 33.050781 " fill-opacity="1" fill-rule="nonzero"/></g></g></g></g></g></g></svg>