<svg xmlns="http://www.w3.org/2000/svg" xmlns:xlink="http://www.w3.org/1999/xlink" width="76" zoomAndPan="magnify" viewBox="0 0 56.879997 84.749999" height="113" preserveAspectRatio="xMidYMid meet" version="1.0"><defs><clipPath id="309dcfee34"><path d="M 0.0234375 0 L 56.738281 0 L 56.738281 84.5 L 0.0234375 84.5 Z M 0.0234375 0 " clip-rule="nonzero"/></clipPath><clipPath id="214f51d3eb"><rect x="0" width="57" y="0" height="85"/></clipPath></defs><g clip-path="url(#309dcfee34)"><g transform="matrix(1, 0, 0, 1, 0, 0.000000000000001628)"><g clip-path="url(#214f51d3eb)"><path fill="#ecd224" d="M 27.894531 23.34375 C 27.894531 23.34375 27.9375 23.347656 27.796875 23.34375 C 20.53125 23.109375 21.910156 15.363281 17.886719 13.558594 C 20.113281 11.980469 21.894531 12.480469 23.53125 13.285156 C 23.046875 6.777344 23.828125 2.867188 29.175781 0.503906 C 27.976562 4.414062 34.097656 4.238281 31.863281 13.828125 C 33.503906 11.929688 35.03125 11.886719 36.96875 13.285156 C 31.503906 16.457031 34.941406 22.875 28.84375 23.324219 L 28.84375 50.757812 C 29.644531 54.039062 31.894531 53.636719 33.078125 51.507812 C 34.027344 49.796875 33.347656 46.027344 30.519531 45.382812 C 30.921875 42.476562 32.398438 41.621094 35.625 41.890625 C 32.375 30.492188 33.445312 22.214844 39.925781 16.898438 C 39.484375 24.9375 46.179688 26.566406 41.269531 40.007812 C 46.902344 39.875 49.273438 42.164062 49.601562 46.191406 C 48.367188 44.738281 46.941406 44.585938 44.761719 44.847656 C 41.449219 45.242188 39.230469 54.511719 32.398438 57.210938 C 31.785156 57.453125 31.402344 57.808594 32.398438 58.285156 C 33.15625 58.644531 33.390625 59.582031 32.667969 60.164062 C 31.640625 60.996094 31.746094 61.644531 33.476562 61.507812 L 40.195312 61.507812 C 46.371094 61.125 47.53125 55.148438 43.957031 48.339844 C 51.042969 50.570312 55.328125 64 43.957031 65.003906 C 46.195312 70.167969 43.652344 73.527344 40.460938 75.484375 C 40.898438 69.105469 38.304688 65.410156 33.476562 63.929688 C 32.0625 63.492188 31.132812 65.035156 32.667969 65.808594 C 35.710938 67.34375 38.132812 69.582031 38.042969 74.679688 C 36.445312 72.765625 34.828125 72.648438 33.207031 72.796875 C 33.472656 76.789062 32.601562 80.410156 28.371094 82.738281 C 28.339844 82.753906 28.316406 82.5 28.296875 82.015625 C 28.28125 82.5 28.257812 82.753906 28.226562 82.738281 C 23.996094 80.410156 23.125 76.789062 23.390625 72.796875 C 21.769531 72.648438 20.152344 72.765625 18.554688 74.679688 C 18.464844 69.582031 20.886719 67.34375 23.929688 65.808594 C 25.460938 65.035156 24.535156 63.492188 23.121094 63.929688 C 18.292969 65.410156 15.699219 69.105469 16.132812 75.484375 C 12.945312 73.527344 10.402344 70.167969 12.640625 65.003906 C 1.269531 64 5.550781 50.570312 12.640625 48.339844 C 9.066406 55.148438 10.226562 61.125 16.402344 61.507812 L 23.121094 61.507812 C 24.847656 61.644531 24.957031 60.996094 23.929688 60.164062 C 23.207031 59.582031 23.4375 58.644531 24.195312 58.285156 C 25.195312 57.808594 24.8125 57.453125 24.195312 57.210938 C 17.367188 54.511719 15.148438 45.242188 11.835938 44.847656 C 9.65625 44.585938 8.230469 44.738281 6.996094 46.191406 C 7.324219 42.164062 9.695312 39.875 15.328125 40.007812 C 10.417969 26.566406 17.113281 24.9375 16.671875 16.898438 C 23.152344 22.214844 24.222656 30.492188 20.972656 41.890625 C 24.199219 41.621094 25.675781 42.476562 26.078125 45.382812 C 23.25 46.027344 22.570312 49.796875 23.519531 51.507812 C 24.652344 53.542969 26.992188 53.601562 27.894531 50.730469 Z M 27.894531 23.34375 " fill-opacity="1" fill-rule="evenodd"/></g></g></g></svg>