<svg xmlns="http://www.w3.org/2000/svg" xmlns:xlink="http://www.w3.org/1999/xlink" width="76" zoomAndPan="magnify" viewBox="0 0 56.879997 84.749999" height="113" preserveAspectRatio="xMidYMid meet" version="1.0"><defs><clipPath id="ed56ba38bb"><path d="M 0.0234375 0 L 56.738281 0 L 56.738281 84.5 L 0.0234375 84.5 Z M 0.0234375 0 " clip-rule="nonzero"/></clipPath><clipPath id="738d6e7302"><path d="M 5.375 1.191406 L 50.835938 1.191406 L 50.835938 84.5 L 5.375 84.5 Z M 5.375 1.191406 " clip-rule="nonzero"/></clipPath><clipPath id="fff44b9d95"><rect x="0" width="57" y="0" height="85"/></clipPath></defs><g clip-path="url(#ed56ba38bb)"><g transform="matrix(1, 0, 0, 1, 0, 0.000000000000001628)"><g clip-path="url(#fff44b9d95)"><g clip-path="url(#738d6e7302)"><path fill="#ecd224" d="M 31.59375 1.191406 C 33.898438 10.886719 37.523438 11.445312 39.238281 19.878906 C 40.246094 19.0625 40.929688 17.75 41.363281 16.058594 C 46.019531 28.214844 33.6875 30.847656 34.140625 38.144531 C 38.335938 35.53125 44.496094 35.070312 47.308594 36.019531 C 50.015625 36.933594 50.773438 39.574219 49.222656 41.761719 C 47.320312 44.453125 42.257812 43.640625 43.0625 38.566406 C 35.808594 38.347656 29.636719 42.515625 25.648438 50.882812 C 34.089844 44.402344 46.761719 51.734375 46.035156 62.777344 C 45.789062 66.519531 42.453125 74.054688 35.839844 70.421875 C 27.535156 62.136719 43.222656 59.539062 38.8125 68.296875 C 40.566406 70.210938 45.765625 65.101562 42.210938 56.832031 C 38.867188 49.050781 22.382812 47.21875 22.675781 64.902344 C 22.847656 75.484375 28.976562 84.140625 36.691406 81.464844 C 35.121094 70.625 48.871094 78.253906 39.664062 83.164062 C 35.089844 85.601562 27.027344 83.34375 22.675781 75.519531 C 19.46875 69.753906 20.441406 65.523438 13.332031 61.925781 C 10.972656 65.371094 7.722656 64.492188 6.789062 62.144531 C 5.789062 59.617188 6.914062 56.796875 11.207031 57.253906 C 13.984375 57.550781 17.34375 61.359375 19.703125 64.902344 C 20.316406 56.324219 23.449219 49.417969 22.25 44.089844 C 20.789062 37.597656 17.351562 34.804688 12.480469 36.019531 C 14.050781 43.351562 5.324219 42.339844 5.6875 37.71875 C 6.078125 32.703125 12.917969 31.511719 17.472656 33.308594 C 21.128906 34.75 24.105469 38.054688 25.648438 44.9375 C 28.667969 38.65625 36.578125 36.429688 26.921875 30.921875 C 20.675781 27.359375 20.15625 22.929688 21.824219 17.332031 C 22.171875 19.359375 23.03125 21.175781 25.222656 22.429688 C 24.636719 13.171875 31.464844 9.722656 31.59375 1.191406 Z M 31.59375 9.6875 C 30.789062 14.21875 28.417969 17.320312 27.589844 20.527344 C 26.765625 23.734375 27.484375 27.042969 32.867188 31.984375 C 37.929688 24.269531 40.835938 25.121094 31.59375 9.6875 Z M 31.59375 9.6875 " fill-opacity="1" fill-rule="evenodd"/></g></g></g></g></svg>