<svg xmlns="http://www.w3.org/2000/svg" xmlns:xlink="http://www.w3.org/1999/xlink" width="2000" zoomAndPan="magnify" viewBox="0 0 1500 1499.999933" height="2000" preserveAspectRatio="xMidYMid meet" version="1.0"><path fill="#ecd224" d="M 189.398438 168.003906 C 236.796875 244.921875 217.132812 271.75 260.1875 336.808594 C 248.496094 338.042969 235.707031 334.007812 222.070312 325.917969 C 270.160156 433.703125 366.074219 371.535156 409.9375 421.214844 C 366.320312 431.359375 323.863281 467.902344 311.917969 492.003906 C 300.425781 515.203125 312.496094 537.015625 336.46875 541.101562 C 365.914062 546.125 393.160156 508.488281 355.484375 481.113281 C 400.574219 433.214844 466.847656 420.355469 546.070312 448.441406 C 450.40625 460.996094 416.175781 589.230469 491.617188 655.367188 C 517.175781 677.769531 586.871094 704.71875 605.972656 639.03125 C 606.101562 532.671875 488.882812 616.574219 573.296875 644.476562 C 574.339844 667.964844 508.242188 668.542969 478.003906 592.742188 C 449.558594 521.429688 543.5 404.015625 654.980469 519.230469 C 721.722656 588.207031 737.898438 682.964844 671.316406 715.265625 C 611.875 635.707031 572.660156 772.761719 663.148438 745.214844 C 708.085938 731.535156 745.3125 665.363281 723.046875 587.296875 C 706.640625 529.777344 673.289062 508.910156 695.820312 440.273438 C 733.007812 447.230469 748.203125 420.753906 739.128906 399.734375 C 729.359375 377.097656 704.078125 366.238281 679.484375 396.710938 C 663.589844 416.402344 666.433594 462.363281 674.039062 500.171875 C 615.125 449.117188 550.761719 424.957031 524.289062 383.097656 C 492.042969 332.101562 496.199219 292.179688 535.179688 268.742188 C 572.132812 325.804688 621.582031 263.378906 589.636719 236.070312 C 554.964844 206.441406 503.496094 242.648438 485.804688 283.367188 C 471.605469 316.050781 473.714844 356.289062 507.953125 410.324219 C 448.328125 389.398438 383.339844 425.839844 409.9375 328.640625 C 427.140625 265.777344 402.066406 234.050781 355.484375 208.84375 C 366.261719 224.089844 372.386719 241.222656 366.375 263.296875 C 310.785156 200.207031 244.902344 221.859375 189.398438 168.003906 Z M 243.851562 222.457031 C 278.058594 246.359375 313.167969 251.039062 339.011719 266.292969 C 364.859375 281.546875 381.445312 307.371094 378.625 373.566406 C 296.714844 356.554688 283.554688 380.644531 243.851562 222.457031 Z M 243.851562 222.457031 " fill-opacity="1" fill-rule="evenodd"/><path fill="#ecd224" d="M 1308.1875 1329.664062 C 1260.792969 1252.753906 1280.457031 1225.929688 1237.402344 1160.875 C 1249.09375 1159.644531 1261.878906 1163.675781 1275.515625 1171.765625 C 1227.429688 1063.992188 1131.527344 1126.152344 1087.667969 1076.480469 C 1131.28125 1066.335938 1173.738281 1029.796875 1185.675781 1005.695312 C 1197.171875 982.5 1185.101562 960.6875 1161.128906 956.601562 C 1131.6875 951.582031 1104.445312 989.214844 1142.117188 1016.585938 C 1097.03125 1064.480469 1030.761719 1077.335938 951.550781 1049.253906 C 1047.207031 1036.703125 1081.429688 908.480469 1005.996094 842.351562 C 980.441406 819.949219 910.753906 793.003906 891.65625 858.6875 C 891.523438 965.035156 1008.734375 881.136719 924.324219 853.242188 C 923.285156 829.753906 989.375 829.175781 1019.609375 904.96875 C 1048.054688 976.273438 954.121094 1093.675781 842.652344 978.472656 C 775.917969 909.503906 759.742188 814.757812 826.316406 782.457031 C 885.75 862.011719 924.964844 724.96875 834.484375 752.511719 C 789.550781 766.191406 752.328125 832.355469 774.59375 910.410156 C 790.996094 967.925781 824.34375 988.792969 801.816406 1057.421875 C 764.632812 1050.464844 749.4375 1076.9375 758.511719 1097.957031 C 768.277344 1120.589844 793.558594 1131.449219 818.152344 1100.980469 C 834.042969 1081.292969 831.199219 1035.335938 823.59375 997.527344 C 882.503906 1048.578125 946.859375 1072.738281 973.328125 1114.59375 C 1005.574219 1165.585938 1001.417969 1205.5 962.4375 1228.933594 C 925.488281 1171.878906 876.046875 1234.296875 907.992188 1261.605469 C 942.65625 1291.230469 994.121094 1255.027344 1011.808594 1214.3125 C 1026.007812 1181.628906 1023.898438 1141.398438 989.664062 1087.367188 C 1049.285156 1108.292969 1114.265625 1071.855469 1087.667969 1169.042969 C 1070.46875 1231.898438 1095.539062 1263.625 1142.117188 1288.828125 C 1131.339844 1273.585938 1125.21875 1256.453125 1131.230469 1234.378906 C 1186.808594 1297.464844 1252.6875 1275.8125 1308.1875 1329.664062 Z M 1253.738281 1275.214844 C 1219.535156 1251.316406 1184.429688 1246.636719 1158.589844 1231.386719 C 1132.742188 1216.132812 1116.15625 1190.308594 1118.976562 1124.121094 C 1200.882812 1141.132812 1214.039062 1117.042969 1253.738281 1275.214844 Z M 1253.738281 1275.214844 " fill-opacity="1" fill-rule="evenodd"/><path fill="#ecd224" d="M 1322.507812 196.574219 C 1245.589844 243.976562 1218.765625 224.308594 1153.703125 267.367188 C 1152.472656 255.675781 1156.503906 242.886719 1164.59375 229.25 C 1056.808594 277.339844 1118.976562 373.25 1069.296875 417.113281 C 1059.152344 373.496094 1022.609375 331.039062 998.507812 319.097656 C 975.3125 307.601562 953.496094 319.675781 949.410156 343.648438 C 944.390625 373.089844 982.027344 400.335938 1009.398438 362.660156 C 1057.300781 407.75 1070.15625 474.027344 1042.070312 553.25 C 1029.515625 457.582031 901.28125 423.355469 835.148438 498.796875 C 812.742188 524.351562 785.792969 594.050781 851.484375 613.148438 C 957.84375 613.28125 873.9375 496.058594 846.039062 580.476562 C 822.546875 581.515625 821.96875 515.421875 897.769531 485.183594 C 969.082031 456.734375 1086.5 550.675781 971.28125 662.15625 C 902.308594 728.898438 807.550781 745.074219 775.246094 678.492188 C 854.808594 619.054688 717.753906 579.835938 745.296875 670.324219 C 758.980469 715.261719 825.148438 752.492188 903.214844 730.226562 C 960.734375 713.816406 981.601562 680.46875 1050.238281 702.996094 C 1043.28125 740.183594 1069.757812 755.378906 1090.777344 746.308594 C 1113.414062 736.539062 1124.273438 711.253906 1093.804688 686.660156 C 1074.113281 670.765625 1028.152344 673.613281 990.339844 681.214844 C 1041.398438 622.300781 1065.558594 557.9375 1107.417969 531.46875 C 1158.414062 499.21875 1198.332031 503.375 1221.769531 542.359375 C 1164.707031 579.3125 1227.132812 628.761719 1254.441406 596.8125 C 1284.074219 562.144531 1247.863281 510.671875 1207.144531 492.984375 C 1174.460938 478.785156 1134.222656 480.890625 1080.191406 515.132812 C 1101.117188 455.503906 1064.671875 390.515625 1161.871094 417.113281 C 1224.734375 434.320312 1256.460938 409.246094 1281.667969 362.660156 C 1266.425781 373.441406 1249.289062 379.5625 1227.214844 373.550781 C 1290.304688 317.964844 1268.652344 252.078125 1322.507812 196.574219 Z M 1268.054688 251.03125 C 1244.152344 285.234375 1239.472656 320.34375 1224.21875 346.1875 C 1208.96875 372.039062 1183.140625 388.625 1116.945312 385.804688 C 1133.960938 303.890625 1109.867188 290.730469 1268.054688 251.03125 Z M 1268.054688 251.03125 " fill-opacity="1" fill-rule="evenodd"/><path fill="#ecd224" d="M 175.144531 1301.078125 C 252.066406 1253.679688 278.890625 1273.347656 343.953125 1230.289062 C 345.183594 1241.980469 341.152344 1254.769531 333.0625 1268.40625 C 440.847656 1220.316406 378.679688 1124.402344 428.355469 1080.542969 C 438.503906 1124.160156 475.046875 1166.617188 499.148438 1178.558594 C 522.34375 1190.054688 544.160156 1177.980469 548.246094 1154.007812 C 553.265625 1124.566406 515.628906 1097.320312 488.257812 1134.996094 C 440.355469 1089.90625 427.5 1023.628906 455.585938 944.40625 C 468.136719 1040.074219 596.375 1074.300781 662.507812 998.859375 C 684.914062 973.300781 711.863281 903.605469 646.171875 884.507812 C 539.8125 884.375 623.71875 1001.597656 651.617188 917.179688 C 675.109375 916.140625 675.6875 982.234375 599.886719 1012.472656 C 528.574219 1040.921875 411.15625 946.980469 526.375 835.5 C 595.347656 768.757812 690.105469 752.582031 722.410156 819.164062 C 642.847656 878.601562 779.902344 917.820312 752.359375 827.332031 C 738.675781 782.390625 672.507812 745.164062 594.441406 767.429688 C 536.921875 783.839844 516.054688 817.1875 447.417969 794.660156 C 454.375 757.472656 427.898438 742.277344 406.878906 751.347656 C 384.242188 761.117188 373.382812 786.398438 403.851562 810.996094 C 423.542969 826.890625 469.503906 824.042969 507.316406 816.441406 C 456.257812 875.355469 432.097656 939.71875 390.238281 966.1875 C 339.242188 998.4375 299.324219 994.28125 275.886719 955.296875 C 332.949219 918.34375 270.523438 868.894531 243.214844 900.84375 C 213.582031 935.511719 249.792969 986.984375 290.511719 1004.671875 C 323.195312 1018.871094 363.433594 1016.765625 417.464844 982.523438 C 396.539062 1042.152344 432.984375 1107.140625 335.785156 1080.542969 C 272.921875 1063.335938 241.195312 1088.410156 215.988281 1134.996094 C 231.230469 1124.214844 248.367188 1118.09375 270.441406 1124.105469 C 207.351562 1179.691406 229.003906 1245.578125 175.144531 1301.078125 Z M 229.601562 1246.625 C 253.503906 1212.421875 258.183594 1177.3125 273.4375 1151.46875 C 288.6875 1125.617188 314.515625 1109.03125 380.710938 1111.851562 C 363.695312 1193.765625 387.789062 1206.921875 229.601562 1246.625 Z M 229.601562 1246.625 " fill-opacity="1" fill-rule="evenodd"/></svg>